<svg width="1440" height="203" viewBox="0 0 1440 203" fill="none" xmlns="http://www.w3.org/2000/svg">
<g clip-path="url(#clip0_569_1499)">
<path d="M1334.5 233.5C1334.5 572.879 1059.38 848 720 848C380.621 848 105.5 572.879 105.5 233.5C105.5 -105.879 380.621 -381 720 -381C1059.38 -381 1334.5 -105.879 1334.5 233.5ZM276.492 233.5C276.492 478.443 475.057 677.008 720 677.008C964.943 677.008 1163.51 478.443 1163.51 233.5C1163.51 -11.4427 964.943 -210.008 720 -210.008C475.057 -210.008 276.492 -11.4427 276.492 233.5Z" fill="#F6F6F6"/>
<path d="M1071.36 233.501C1071.36 427.554 914.054 584.865 720.001 584.865C525.948 584.865 368.637 427.554 368.637 233.501C368.637 39.4477 525.948 -117.863 720.001 -117.863C914.054 -117.863 1071.36 39.4477 1071.36 233.501ZM509.991 233.501C509.991 349.486 604.015 443.511 720.001 443.511C835.986 443.511 930.011 349.486 930.011 233.501C930.011 117.515 835.986 23.4906 720.001 23.4906C604.015 23.4906 509.991 117.515 509.991 233.501Z" fill="#F9F9F9"/>
<circle cx="719.999" cy="233.501" r="114.542" fill="#FCFCFC"/>
<path d="M398.521 79L403.726 68.7045V68.6136H397.726V67.3636H405.18V68.6818L399.999 79H398.521ZM407.974 79L413.179 68.7045V68.6136H407.179V67.3636H414.634V68.6818L409.452 79H407.974ZM415.751 79.0909C415.471 79.0909 415.231 78.9905 415.03 78.7898C414.829 78.589 414.729 78.3485 414.729 78.0682C414.729 77.7879 414.829 77.5473 415.03 77.3466C415.231 77.1458 415.471 77.0455 415.751 77.0455C416.032 77.0455 416.272 77.1458 416.473 77.3466C416.674 77.5473 416.774 77.7879 416.774 78.0682C416.774 78.2538 416.727 78.4242 416.632 78.5795C416.541 78.7348 416.418 78.8598 416.263 78.9545C416.111 79.0455 415.941 79.0909 415.751 79.0909ZM424.68 75.4318V70.2727H426.021V79H424.68V77.5227H424.589C424.385 77.9659 424.067 78.3428 423.635 78.6534C423.203 78.9602 422.658 79.1136 421.999 79.1136C421.453 79.1136 420.968 78.9943 420.544 78.7557C420.12 78.5133 419.786 78.1496 419.544 77.6648C419.302 77.1761 419.18 76.5606 419.18 75.8182V70.2727H420.521V75.7273C420.521 76.3636 420.699 76.8712 421.055 77.25C421.415 77.6288 421.874 77.8182 422.43 77.8182C422.764 77.8182 423.103 77.733 423.447 77.5625C423.796 77.392 424.088 77.1307 424.322 76.7784C424.561 76.4261 424.68 75.9773 424.68 75.4318ZM428.227 79V77.9773L433.182 71.6136V71.5227H428.386V70.2727H434.909V71.3409L430.091 77.6591V77.75H435.068V79H428.227ZM441.634 79V70.2727H442.929V71.6364H443.043C443.224 71.1705 443.518 70.8087 443.923 70.5511C444.329 70.2898 444.815 70.1591 445.384 70.1591C445.959 70.1591 446.438 70.2898 446.821 70.5511C447.207 70.8087 447.509 71.1705 447.724 71.6364H447.815C448.039 71.1856 448.374 70.8277 448.821 70.5625C449.268 70.2936 449.804 70.1591 450.429 70.1591C451.209 70.1591 451.848 70.4034 452.344 70.892C452.84 71.3769 453.088 72.1326 453.088 73.1591V79H451.747V73.1591C451.747 72.5152 451.571 72.0549 451.219 71.7784C450.866 71.5019 450.452 71.3636 449.974 71.3636C449.361 71.3636 448.885 71.5492 448.548 71.9205C448.211 72.2879 448.043 72.7538 448.043 73.3182V79H446.679V73.0227C446.679 72.5265 446.518 72.1269 446.196 71.8239C445.874 71.517 445.459 71.3636 444.952 71.3636C444.603 71.3636 444.277 71.4564 443.974 71.642C443.675 71.8277 443.433 72.0852 443.247 72.4148C443.065 72.7405 442.974 73.1174 442.974 73.5455V79H441.634ZM458.108 79.2045C457.555 79.2045 457.053 79.1004 456.602 78.892C456.152 78.6799 455.794 78.375 455.528 77.9773C455.263 77.5758 455.131 77.0909 455.131 76.5227C455.131 76.0227 455.229 75.6174 455.426 75.3068C455.623 74.9924 455.886 74.7462 456.216 74.5682C456.545 74.3902 456.909 74.2576 457.307 74.1705C457.708 74.0795 458.112 74.0076 458.517 73.9545C459.047 73.8864 459.477 73.8352 459.807 73.8011C460.14 73.7633 460.383 73.7008 460.534 73.6136C460.689 73.5265 460.767 73.375 460.767 73.1591V73.1136C460.767 72.553 460.614 72.1174 460.307 71.8068C460.004 71.4962 459.544 71.3409 458.926 71.3409C458.286 71.3409 457.784 71.4811 457.42 71.7614C457.057 72.0417 456.801 72.3409 456.653 72.6591L455.381 72.2045C455.608 71.6742 455.911 71.2614 456.29 70.9659C456.672 70.6667 457.089 70.4583 457.54 70.3409C457.994 70.2197 458.441 70.1591 458.881 70.1591C459.161 70.1591 459.483 70.1932 459.847 70.2614C460.214 70.3258 460.568 70.4602 460.909 70.6648C461.254 70.8693 461.54 71.178 461.767 71.5909C461.994 72.0038 462.108 72.5568 462.108 73.25V79H460.767V77.8182H460.699C460.608 78.0076 460.456 78.2102 460.244 78.4261C460.032 78.642 459.75 78.8258 459.398 78.9773C459.045 79.1288 458.616 79.2045 458.108 79.2045ZM458.312 78C458.843 78 459.29 77.8958 459.653 77.6875C460.021 77.4792 460.297 77.2102 460.483 76.8807C460.672 76.5511 460.767 76.2045 460.767 75.8409V74.6136C460.71 74.6818 460.585 74.7443 460.392 74.8011C460.203 74.8542 459.983 74.9015 459.733 74.9432C459.487 74.9811 459.246 75.0152 459.011 75.0455C458.78 75.072 458.593 75.0947 458.449 75.1136C458.1 75.1591 457.775 75.233 457.472 75.3352C457.172 75.4337 456.93 75.5833 456.744 75.7841C456.563 75.9811 456.472 76.25 456.472 76.5909C456.472 77.0568 456.644 77.4091 456.989 77.6477C457.337 77.8826 457.778 78 458.312 78ZM464.555 79V70.2727H465.851V71.5909H465.942C466.101 71.1591 466.389 70.8087 466.805 70.5398C467.222 70.2708 467.692 70.1364 468.214 70.1364C468.313 70.1364 468.436 70.1383 468.584 70.142C468.732 70.1458 468.843 70.1515 468.919 70.1591V71.5227C468.874 71.5114 468.769 71.4943 468.607 71.4716C468.447 71.4451 468.279 71.4318 468.101 71.4318C467.677 71.4318 467.298 71.5208 466.964 71.6989C466.635 71.8731 466.374 72.1155 466.18 72.4261C465.991 72.733 465.896 73.0833 465.896 73.4773V79H464.555ZM471.759 75.8182L471.736 74.1591H472.009L475.827 70.2727H477.486L473.418 74.3864H473.304L471.759 75.8182ZM470.509 79V67.3636H471.849V79H470.509ZM476.054 79L472.645 74.6818L473.599 73.75L477.759 79H476.054ZM482.511 79.1818C481.67 79.1818 480.945 78.9962 480.335 78.625C479.729 78.25 479.261 77.7273 478.932 77.0568C478.606 76.3826 478.443 75.5985 478.443 74.7045C478.443 73.8106 478.606 73.0227 478.932 72.3409C479.261 71.6553 479.72 71.1212 480.307 70.7386C480.898 70.3523 481.587 70.1591 482.375 70.1591C482.83 70.1591 483.278 70.2348 483.722 70.3864C484.165 70.5379 484.568 70.7841 484.932 71.125C485.295 71.4621 485.585 71.9091 485.801 72.4659C486.017 73.0227 486.125 73.7083 486.125 74.5227V75.0909H479.398V73.9318H484.761C484.761 73.4394 484.663 73 484.466 72.6136C484.273 72.2273 483.996 71.9223 483.636 71.6989C483.28 71.4754 482.86 71.3636 482.375 71.3636C481.841 71.3636 481.379 71.4962 480.989 71.7614C480.602 72.0227 480.305 72.3636 480.097 72.7841C479.888 73.2045 479.784 73.6553 479.784 74.1364V74.9091C479.784 75.5682 479.898 76.1269 480.125 76.5852C480.356 77.0398 480.676 77.3864 481.085 77.625C481.494 77.8598 481.97 77.9773 482.511 77.9773C482.864 77.9773 483.182 77.928 483.466 77.8295C483.754 77.7273 484.002 77.5758 484.21 77.375C484.419 77.1705 484.58 76.9167 484.693 76.6136L485.989 76.9773C485.852 77.4167 485.623 77.803 485.301 78.1364C484.979 78.4659 484.581 78.7235 484.108 78.9091C483.634 79.0909 483.102 79.1818 482.511 79.1818ZM491.96 70.2727V71.4091H487.438V70.2727H491.96ZM488.756 68.1818H490.097V76.5C490.097 76.8788 490.152 77.1629 490.261 77.3523C490.375 77.5379 490.519 77.6629 490.693 77.7273C490.871 77.7879 491.059 77.8182 491.256 77.8182C491.403 77.8182 491.525 77.8106 491.619 77.7955C491.714 77.7765 491.79 77.7614 491.847 77.75L492.119 78.9545C492.028 78.9886 491.902 79.0227 491.739 79.0568C491.576 79.0947 491.369 79.1136 491.119 79.1136C490.741 79.1136 490.369 79.0322 490.006 78.8693C489.646 78.7064 489.347 78.4583 489.108 78.125C488.873 77.7917 488.756 77.3712 488.756 76.8636V68.1818ZM493.977 82.2727V70.2727H495.273V71.6591H495.432C495.53 71.5076 495.667 71.3144 495.841 71.0795C496.019 70.8409 496.273 70.6288 496.602 70.4432C496.936 70.2538 497.386 70.1591 497.955 70.1591C498.689 70.1591 499.337 70.3428 499.898 70.7102C500.458 71.0777 500.896 71.5985 501.21 72.2727C501.525 72.947 501.682 73.7424 501.682 74.6591C501.682 75.5833 501.525 76.3845 501.21 77.0625C500.896 77.7367 500.46 78.2595 499.903 78.6307C499.347 78.9981 498.705 79.1818 497.977 79.1818C497.417 79.1818 496.968 79.089 496.631 78.9034C496.294 78.714 496.034 78.5 495.852 78.2614C495.67 78.0189 495.53 77.8182 495.432 77.6591H495.318V82.2727H493.977ZM495.295 74.6364C495.295 75.2955 495.392 75.8769 495.585 76.3807C495.778 76.8807 496.061 77.2727 496.432 77.5568C496.803 77.8371 497.258 77.9773 497.795 77.9773C498.356 77.9773 498.824 77.8295 499.199 77.5341C499.578 77.2348 499.862 76.8333 500.051 76.3295C500.244 75.822 500.341 75.2576 500.341 74.6364C500.341 74.0227 500.246 73.4697 500.057 72.9773C499.871 72.4811 499.589 72.089 499.21 71.8011C498.835 71.5095 498.364 71.3636 497.795 71.3636C497.25 71.3636 496.792 71.5019 496.42 71.7784C496.049 72.0511 495.769 72.4337 495.58 72.9261C495.39 73.4148 495.295 73.9848 495.295 74.6364ZM505.068 67.3636V79H503.727V67.3636H505.068ZM510.092 79.2045C509.539 79.2045 509.037 79.1004 508.587 78.892C508.136 78.6799 507.778 78.375 507.513 77.9773C507.248 77.5758 507.115 77.0909 507.115 76.5227C507.115 76.0227 507.214 75.6174 507.411 75.3068C507.607 74.9924 507.871 74.7462 508.2 74.5682C508.53 74.3902 508.893 74.2576 509.291 74.1705C509.693 74.0795 510.096 74.0076 510.501 73.9545C511.032 73.8864 511.462 73.8352 511.791 73.8011C512.125 73.7633 512.367 73.7008 512.518 73.6136C512.674 73.5265 512.751 73.375 512.751 73.1591V73.1136C512.751 72.553 512.598 72.1174 512.291 71.8068C511.988 71.4962 511.528 71.3409 510.911 71.3409C510.27 71.3409 509.768 71.4811 509.405 71.7614C509.041 72.0417 508.786 72.3409 508.638 72.6591L507.365 72.2045C507.592 71.6742 507.895 71.2614 508.274 70.9659C508.657 70.6667 509.073 70.4583 509.524 70.3409C509.979 70.2197 510.426 70.1591 510.865 70.1591C511.145 70.1591 511.467 70.1932 511.831 70.2614C512.198 70.3258 512.553 70.4602 512.893 70.6648C513.238 70.8693 513.524 71.178 513.751 71.5909C513.979 72.0038 514.092 72.5568 514.092 73.25V79H512.751V77.8182H512.683C512.592 78.0076 512.441 78.2102 512.229 78.4261C512.017 78.642 511.734 78.8258 511.382 78.9773C511.03 79.1288 510.6 79.2045 510.092 79.2045ZM510.297 78C510.827 78 511.274 77.8958 511.638 77.6875C512.005 77.4792 512.282 77.2102 512.467 76.8807C512.657 76.5511 512.751 76.2045 512.751 75.8409V74.6136C512.695 74.6818 512.57 74.7443 512.376 74.8011C512.187 74.8542 511.967 74.9015 511.717 74.9432C511.471 74.9811 511.231 75.0152 510.996 75.0455C510.765 75.072 510.577 75.0947 510.433 75.1136C510.085 75.1591 509.759 75.233 509.456 75.3352C509.157 75.4337 508.914 75.5833 508.729 75.7841C508.547 75.9811 508.456 76.25 508.456 76.5909C508.456 77.0568 508.628 77.4091 508.973 77.6477C509.321 77.8826 509.763 78 510.297 78ZM520.085 79.1818C519.267 79.1818 518.563 78.9886 517.972 78.6023C517.381 78.2159 516.926 77.6837 516.608 77.0057C516.29 76.3277 516.131 75.553 516.131 74.6818C516.131 73.7955 516.294 73.0133 516.619 72.3352C516.949 71.6534 517.407 71.1212 517.994 70.7386C518.585 70.3523 519.275 70.1591 520.062 70.1591C520.676 70.1591 521.229 70.2727 521.722 70.5C522.214 70.7273 522.617 71.0455 522.932 71.4545C523.246 71.8636 523.441 72.3409 523.517 72.8864H522.176C522.074 72.4886 521.847 72.1364 521.494 71.8295C521.146 71.5189 520.676 71.3636 520.085 71.3636C519.563 71.3636 519.104 71.5 518.71 71.7727C518.32 72.0417 518.015 72.4223 517.795 72.9148C517.58 73.4034 517.472 73.9773 517.472 74.6364C517.472 75.3106 517.578 75.8977 517.79 76.3977C518.006 76.8977 518.309 77.286 518.699 77.5625C519.093 77.839 519.555 77.9773 520.085 77.9773C520.434 77.9773 520.75 77.9167 521.034 77.7955C521.318 77.6742 521.559 77.5 521.756 77.2727C521.953 77.0455 522.093 76.7727 522.176 76.4545H523.517C523.441 76.9697 523.254 77.4337 522.955 77.8466C522.659 78.2557 522.267 78.5814 521.778 78.8239C521.294 79.0625 520.729 79.1818 520.085 79.1818ZM529.136 79.1818C528.295 79.1818 527.57 78.9962 526.96 78.625C526.354 78.25 525.886 77.7273 525.557 77.0568C525.231 76.3826 525.068 75.5985 525.068 74.7045C525.068 73.8106 525.231 73.0227 525.557 72.3409C525.886 71.6553 526.345 71.1212 526.932 70.7386C527.523 70.3523 528.212 70.1591 529 70.1591C529.455 70.1591 529.903 70.2348 530.347 70.3864C530.79 70.5379 531.193 70.7841 531.557 71.125C531.92 71.4621 532.21 71.9091 532.426 72.4659C532.642 73.0227 532.75 73.7083 532.75 74.5227V75.0909H526.023V73.9318H531.386C531.386 73.4394 531.288 73 531.091 72.6136C530.898 72.2273 530.621 71.9223 530.261 71.6989C529.905 71.4754 529.485 71.3636 529 71.3636C528.466 71.3636 528.004 71.4962 527.614 71.7614C527.227 72.0227 526.93 72.3636 526.722 72.7841C526.513 73.2045 526.409 73.6553 526.409 74.1364V74.9091C526.409 75.5682 526.523 76.1269 526.75 76.5852C526.981 77.0398 527.301 77.3864 527.71 77.625C528.119 77.8598 528.595 77.9773 529.136 77.9773C529.489 77.9773 529.807 77.928 530.091 77.8295C530.379 77.7273 530.627 77.5758 530.835 77.375C531.044 77.1705 531.205 76.9167 531.318 76.6136L532.614 76.9773C532.477 77.4167 532.248 77.803 531.926 78.1364C531.604 78.4659 531.206 78.7235 530.733 78.9091C530.259 79.0909 529.727 79.1818 529.136 79.1818ZM544.29 73.3864V74.6364H539.199V73.3864H544.29ZM554.036 71.4091C553.732 71.4129 553.428 71.4905 553.121 71.642C552.818 71.7936 552.564 71.9943 552.359 72.2443C552.159 72.4905 552.058 72.7652 552.058 73.0682H550.74C550.74 72.6894 550.831 72.3258 551.013 71.9773C551.195 71.6288 551.439 71.3182 551.746 71.0455C552.056 70.7727 552.409 70.5568 552.803 70.3977C553.2 70.2386 553.611 70.1591 554.036 70.1591C554.831 70.1591 555.505 70.3598 556.058 70.7614C556.615 71.1629 557.037 71.6932 557.325 72.3523C557.617 73.0114 557.763 73.7273 557.763 74.5V74.8182C557.763 75.5871 557.617 76.303 557.325 76.9659C557.037 77.625 556.615 78.1553 556.058 78.5568C555.505 78.9583 554.831 79.1591 554.036 79.1591C553.399 79.1591 552.833 79.0189 552.337 78.7386C551.84 78.4545 551.45 78.0758 551.166 77.6023C550.882 77.1288 550.74 76.6023 550.74 76.0227H552.058C552.058 76.3523 552.151 76.661 552.337 76.9489C552.526 77.233 552.77 77.464 553.07 77.642C553.373 77.8163 553.695 77.9053 554.036 77.9091C554.543 77.9053 554.975 77.7462 555.331 77.4318C555.687 77.1174 555.958 76.7235 556.143 76.25C556.329 75.7765 556.422 75.2992 556.422 74.8182V74.5C556.422 74.0076 556.329 73.5265 556.143 73.0568C555.962 72.5833 555.693 72.1913 555.337 71.8807C554.984 71.5701 554.551 71.4129 554.036 71.4091ZM556.967 73.9773V75.2273H553.149V73.9773H556.967ZM558.665 71.5227V70.2727H565.756V71.5227H562.892V79H561.551V71.5227H558.665ZM570.804 79.1818C570.016 79.1818 569.325 78.9943 568.73 78.6193C568.139 78.2443 567.677 77.7197 567.344 77.0455C567.014 76.3712 566.849 75.5833 566.849 74.6818C566.849 73.7727 567.014 72.9792 567.344 72.3011C567.677 71.6231 568.139 71.0966 568.73 70.7216C569.325 70.3466 570.016 70.1591 570.804 70.1591C571.592 70.1591 572.281 70.3466 572.872 70.7216C573.467 71.0966 573.929 71.6231 574.259 72.3011C574.592 72.9792 574.759 73.7727 574.759 74.6818C574.759 75.5833 574.592 76.3712 574.259 77.0455C573.929 77.7197 573.467 78.2443 572.872 78.6193C572.281 78.9943 571.592 79.1818 570.804 79.1818ZM570.804 77.9773C571.402 77.9773 571.895 77.8239 572.281 77.517C572.668 77.2102 572.954 76.8068 573.139 76.3068C573.325 75.8068 573.418 75.2652 573.418 74.6818C573.418 74.0985 573.325 73.5549 573.139 73.0511C572.954 72.5473 572.668 72.1402 572.281 71.8295C571.895 71.5189 571.402 71.3636 570.804 71.3636C570.205 71.3636 569.713 71.5189 569.327 71.8295C568.94 72.1402 568.654 72.5473 568.469 73.0511C568.283 73.5549 568.19 74.0985 568.19 74.6818C568.19 75.2652 568.283 75.8068 568.469 76.3068C568.654 76.8068 568.94 77.2102 569.327 77.517C569.713 77.8239 570.205 77.9773 570.804 77.9773ZM581.305 79V70.2727H584.874C585.813 70.2727 586.559 70.4848 587.112 70.9091C587.665 71.3333 587.942 71.8939 587.942 72.5909C587.942 73.1212 587.785 73.5322 587.47 73.8239C587.156 74.1117 586.752 74.3068 586.26 74.4091C586.582 74.4545 586.894 74.5682 587.197 74.75C587.504 74.9318 587.758 75.1818 587.959 75.5C588.16 75.8144 588.26 76.2008 588.26 76.6591C588.26 77.1061 588.146 77.5057 587.919 77.858C587.692 78.2102 587.366 78.4886 586.942 78.6932C586.518 78.8977 586.01 79 585.419 79H581.305ZM582.578 77.7727H585.419C585.881 77.7727 586.243 77.6629 586.504 77.4432C586.766 77.2235 586.896 76.9242 586.896 76.5455C586.896 76.0947 586.766 75.7405 586.504 75.483C586.243 75.2216 585.881 75.0909 585.419 75.0909H582.578V77.7727ZM582.578 73.9318H584.874C585.233 73.9318 585.542 73.8826 585.8 73.7841C586.057 73.6818 586.254 73.5379 586.391 73.3523C586.531 73.1629 586.601 72.9394 586.601 72.6818C586.601 72.3144 586.447 72.0265 586.141 71.8182C585.834 71.6061 585.411 71.5 584.874 71.5H582.578V73.9318ZM591.631 77.0227L595.835 70.2727H597.381V79H596.04V72.25L591.858 79H590.29V70.2727H591.631V77.0227ZM599.837 82.2727V70.2727H601.132V71.6591H601.291C601.39 71.5076 601.526 71.3144 601.7 71.0795C601.878 70.8409 602.132 70.6288 602.462 70.4432C602.795 70.2538 603.246 70.1591 603.814 70.1591C604.549 70.1591 605.196 70.3428 605.757 70.7102C606.318 71.0777 606.755 71.5985 607.07 72.2727C607.384 72.947 607.541 73.7424 607.541 74.6591C607.541 75.5833 607.384 76.3845 607.07 77.0625C606.755 77.7367 606.32 78.2595 605.763 78.6307C605.206 78.9981 604.564 79.1818 603.837 79.1818C603.276 79.1818 602.827 79.089 602.49 78.9034C602.153 78.714 601.893 78.5 601.712 78.2614C601.53 78.0189 601.39 77.8182 601.291 77.6591H601.178V82.2727H599.837ZM601.155 74.6364C601.155 75.2955 601.251 75.8769 601.445 76.3807C601.638 76.8807 601.92 77.2727 602.291 77.5568C602.662 77.8371 603.117 77.9773 603.655 77.9773C604.215 77.9773 604.683 77.8295 605.058 77.5341C605.437 77.2348 605.721 76.8333 605.911 76.3295C606.104 75.822 606.2 75.2576 606.2 74.6364C606.2 74.0227 606.106 73.4697 605.916 72.9773C605.731 72.4811 605.448 72.089 605.07 71.8011C604.695 71.5095 604.223 71.3636 603.655 71.3636C603.109 71.3636 602.651 71.5019 602.28 71.7784C601.909 72.0511 601.628 72.4337 601.439 72.9261C601.25 73.4148 601.155 73.9848 601.155 74.6364ZM608.446 71.5227V70.2727H615.537V71.5227H612.673V79H611.332V71.5227H608.446ZM618.357 82.2727C618.129 82.2727 617.927 82.2538 617.749 82.2159C617.571 82.1818 617.447 82.1477 617.379 82.1136L617.72 80.9318C618.046 81.0152 618.334 81.0455 618.584 81.0227C618.834 81 619.055 80.8883 619.249 80.6875C619.446 80.4905 619.625 80.1705 619.788 79.7273L620.038 79.0455L616.811 70.2727H618.266L620.675 77.2273H620.766L623.175 70.2727H624.629L620.925 80.2727C620.758 80.7235 620.552 81.0966 620.305 81.392C620.059 81.6913 619.773 81.9129 619.447 82.0568C619.125 82.2008 618.762 82.2727 618.357 82.2727ZM628.702 79.2045C628.149 79.2045 627.647 79.1004 627.196 78.892C626.745 78.6799 626.387 78.375 626.122 77.9773C625.857 77.5758 625.724 77.0909 625.724 76.5227C625.724 76.0227 625.823 75.6174 626.02 75.3068C626.217 74.9924 626.48 74.7462 626.81 74.5682C627.139 74.3902 627.503 74.2576 627.901 74.1705C628.302 74.0795 628.705 74.0076 629.111 73.9545C629.641 73.8864 630.071 73.8352 630.401 73.8011C630.734 73.7633 630.976 73.7008 631.128 73.6136C631.283 73.5265 631.361 73.375 631.361 73.1591V73.1136C631.361 72.553 631.207 72.1174 630.901 71.8068C630.598 71.4962 630.137 71.3409 629.52 71.3409C628.88 71.3409 628.378 71.4811 628.014 71.7614C627.651 72.0417 627.395 72.3409 627.247 72.6591L625.974 72.2045C626.202 71.6742 626.505 71.2614 626.884 70.9659C627.266 70.6667 627.683 70.4583 628.134 70.3409C628.588 70.2197 629.035 70.1591 629.474 70.1591C629.755 70.1591 630.077 70.1932 630.44 70.2614C630.808 70.3258 631.162 70.4602 631.503 70.6648C631.848 70.8693 632.134 71.178 632.361 71.5909C632.588 72.0038 632.702 72.5568 632.702 73.25V79H631.361V77.8182H631.293C631.202 78.0076 631.05 78.2102 630.838 78.4261C630.626 78.642 630.344 78.8258 629.991 78.9773C629.639 79.1288 629.209 79.2045 628.702 79.2045ZM628.906 78C629.437 78 629.884 77.8958 630.247 77.6875C630.615 77.4792 630.891 77.2102 631.077 76.8807C631.266 76.5511 631.361 76.2045 631.361 75.8409V74.6136C631.304 74.6818 631.179 74.7443 630.986 74.8011C630.796 74.8542 630.577 74.9015 630.327 74.9432C630.08 74.9811 629.84 75.0152 629.605 75.0455C629.374 75.072 629.187 75.0947 629.043 75.1136C628.694 75.1591 628.368 75.233 628.065 75.3352C627.766 75.4337 627.524 75.5833 627.338 75.7841C627.156 75.9811 627.065 76.25 627.065 76.5909C627.065 77.0568 627.238 77.4091 627.582 77.6477C627.931 77.8826 628.372 78 628.906 78ZM634.376 79V77.75H634.695C634.956 77.75 635.174 77.6989 635.348 77.5966C635.522 77.4905 635.662 77.3068 635.768 77.0455C635.878 76.7803 635.962 76.4129 636.018 75.9432C636.079 75.4697 636.123 74.8674 636.149 74.1364L636.308 70.2727H642.126V79H640.786V71.5227H637.581L637.445 74.6364C637.414 75.3523 637.35 75.983 637.251 76.5284C637.157 77.0701 637.011 77.5246 636.814 77.892C636.621 78.2595 636.363 78.536 636.041 78.7216C635.719 78.9072 635.316 79 634.831 79H634.376ZM645.746 73.4318H648.246C649.268 73.4318 650.051 73.6913 650.592 74.2102C651.134 74.7292 651.405 75.3864 651.405 76.1818C651.405 76.7045 651.284 77.1799 651.041 77.608C650.799 78.0322 650.443 78.3712 649.973 78.625C649.503 78.875 648.928 79 648.246 79H644.587V70.2727H645.928V77.75H648.246C648.776 77.75 649.212 77.6098 649.553 77.3295C649.893 77.0492 650.064 76.6894 650.064 76.25C650.064 75.7879 649.893 75.411 649.553 75.1193C649.212 74.8277 648.776 74.6818 648.246 74.6818H645.746V73.4318ZM659.287 74.0227V75.2727H654.469V74.0227H659.287ZM654.787 70.2727V79H653.446V70.2727H654.787ZM660.31 70.2727V79H658.969V70.2727H660.31ZM665.327 79.2045C664.774 79.2045 664.272 79.1004 663.821 78.892C663.37 78.6799 663.012 78.375 662.747 77.9773C662.482 77.5758 662.349 77.0909 662.349 76.5227C662.349 76.0227 662.448 75.6174 662.645 75.3068C662.842 74.9924 663.105 74.7462 663.435 74.5682C663.764 74.3902 664.128 74.2576 664.526 74.1705C664.927 74.0795 665.33 74.0076 665.736 73.9545C666.266 73.8864 666.696 73.8352 667.026 73.8011C667.359 73.7633 667.601 73.7008 667.753 73.6136C667.908 73.5265 667.986 73.375 667.986 73.1591V73.1136C667.986 72.553 667.832 72.1174 667.526 71.8068C667.223 71.4962 666.762 71.3409 666.145 71.3409C665.505 71.3409 665.003 71.4811 664.639 71.7614C664.276 72.0417 664.02 72.3409 663.872 72.6591L662.599 72.2045C662.827 71.6742 663.13 71.2614 663.509 70.9659C663.891 70.6667 664.308 70.4583 664.759 70.3409C665.213 70.2197 665.66 70.1591 666.099 70.1591C666.38 70.1591 666.702 70.1932 667.065 70.2614C667.433 70.3258 667.787 70.4602 668.128 70.6648C668.473 70.8693 668.759 71.178 668.986 71.5909C669.213 72.0038 669.327 72.5568 669.327 73.25V79H667.986V77.8182H667.918C667.827 78.0076 667.675 78.2102 667.463 78.4261C667.251 78.642 666.969 78.8258 666.616 78.9773C666.264 79.1288 665.834 79.2045 665.327 79.2045ZM665.531 78C666.062 78 666.509 77.8958 666.872 77.6875C667.24 77.4792 667.516 77.2102 667.702 76.8807C667.891 76.5511 667.986 76.2045 667.986 75.8409V74.6136C667.929 74.6818 667.804 74.7443 667.611 74.8011C667.421 74.8542 667.202 74.9015 666.952 74.9432C666.705 74.9811 666.465 75.0152 666.23 75.0455C665.999 75.072 665.812 75.0947 665.668 75.1136C665.319 75.1591 664.993 75.233 664.69 75.3352C664.391 75.4337 664.149 75.5833 663.963 75.7841C663.781 75.9811 663.69 76.25 663.69 76.5909C663.69 77.0568 663.863 77.4091 664.207 77.6477C664.556 77.8826 664.997 78 665.531 78ZM677.024 79V71.5H674.706C674.183 71.5 673.772 71.6212 673.473 71.8636C673.174 72.1061 673.024 72.4394 673.024 72.8636C673.024 73.2803 673.159 73.608 673.428 73.8466C673.7 74.0852 674.073 74.2045 674.547 74.2045H677.365V75.4545H674.547C673.956 75.4545 673.446 75.3504 673.018 75.142C672.59 74.9337 672.261 74.6364 672.03 74.25C671.799 73.8598 671.683 73.3977 671.683 72.8636C671.683 72.3258 671.804 71.8636 672.047 71.4773C672.289 71.0909 672.636 70.7936 673.087 70.5852C673.541 70.3769 674.081 70.2727 674.706 70.2727H678.297V79H677.024ZM671.206 79L673.683 74.6591H675.138L672.661 79H671.206ZM685.259 79V70.2727H692.122V79H690.781V71.5227H686.599V79H685.259ZM693.798 79V77.75H694.116C694.378 77.75 694.596 77.6989 694.77 77.5966C694.944 77.4905 695.084 77.3068 695.19 77.0455C695.3 76.7803 695.384 76.4129 695.44 75.9432C695.501 75.4697 695.545 74.8674 695.571 74.1364L695.73 70.2727H701.548V79H700.207V71.5227H697.003L696.866 74.6364C696.836 75.3523 696.772 75.983 696.673 76.5284C696.579 77.0701 696.433 77.5246 696.236 77.892C696.043 78.2595 695.785 78.536 695.463 78.7216C695.141 78.9072 694.738 79 694.253 79H693.798ZM706.577 79.2045C706.024 79.2045 705.522 79.1004 705.071 78.892C704.62 78.6799 704.262 78.375 703.997 77.9773C703.732 77.5758 703.599 77.0909 703.599 76.5227C703.599 76.0227 703.698 75.6174 703.895 75.3068C704.092 74.9924 704.355 74.7462 704.685 74.5682C705.014 74.3902 705.378 74.2576 705.776 74.1705C706.177 74.0795 706.58 74.0076 706.986 73.9545C707.516 73.8864 707.946 73.8352 708.276 73.8011C708.609 73.7633 708.851 73.7008 709.003 73.6136C709.158 73.5265 709.236 73.375 709.236 73.1591V73.1136C709.236 72.553 709.082 72.1174 708.776 71.8068C708.473 71.4962 708.012 71.3409 707.395 71.3409C706.755 71.3409 706.253 71.4811 705.889 71.7614C705.526 72.0417 705.27 72.3409 705.122 72.6591L703.849 72.2045C704.077 71.6742 704.38 71.2614 704.759 70.9659C705.141 70.6667 705.558 70.4583 706.009 70.3409C706.463 70.2197 706.91 70.1591 707.349 70.1591C707.63 70.1591 707.952 70.1932 708.315 70.2614C708.683 70.3258 709.037 70.4602 709.378 70.6648C709.723 70.8693 710.009 71.178 710.236 71.5909C710.463 72.0038 710.577 72.5568 710.577 73.25V79H709.236V77.8182H709.168C709.077 78.0076 708.925 78.2102 708.713 78.4261C708.501 78.642 708.219 78.8258 707.866 78.9773C707.514 79.1288 707.084 79.2045 706.577 79.2045ZM706.781 78C707.312 78 707.759 77.8958 708.122 77.6875C708.49 77.4792 708.766 77.2102 708.952 76.8807C709.141 76.5511 709.236 76.2045 709.236 75.8409V74.6136C709.179 74.6818 709.054 74.7443 708.861 74.8011C708.671 74.8542 708.452 74.9015 708.202 74.9432C707.955 74.9811 707.715 75.0152 707.48 75.0455C707.249 75.072 707.062 75.0947 706.918 75.1136C706.569 75.1591 706.243 75.233 705.94 75.3352C705.641 75.4337 705.399 75.5833 705.213 75.7841C705.031 75.9811 704.94 76.25 704.94 76.5909C704.94 77.0568 705.113 77.4091 705.457 77.6477C705.806 77.8826 706.247 78 706.781 78ZM711.837 71.5227V70.2727H718.928V71.5227H716.064V79H714.723V71.5227H711.837ZM723.976 81.9773V67.3636H725.317V81.9773H723.976ZM723.976 79.1818C723.385 79.1818 722.847 79.0758 722.362 78.8636C721.877 78.6477 721.461 78.3428 721.112 77.9489C720.764 77.5511 720.495 77.0758 720.305 76.5227C720.116 75.9697 720.021 75.3561 720.021 74.6818C720.021 74 720.116 73.3826 720.305 72.8295C720.495 72.2727 720.764 71.7955 721.112 71.3977C721.461 71 721.877 70.6951 722.362 70.483C722.847 70.267 723.385 70.1591 723.976 70.1591H724.385V79.1818H723.976ZM723.976 77.9773H724.203V71.3636H723.976C723.529 71.3636 723.141 71.4545 722.811 71.6364C722.482 71.8144 722.209 72.0587 721.993 72.3693C721.781 72.6761 721.622 73.0284 721.516 73.4261C721.413 73.8239 721.362 74.2424 721.362 74.6818C721.362 75.2652 721.455 75.8068 721.641 76.3068C721.826 76.8068 722.112 77.2102 722.499 77.517C722.885 77.8239 723.377 77.9773 723.976 77.9773ZM725.317 79.1818H724.908V70.1591H725.317C725.908 70.1591 726.446 70.267 726.93 70.483C727.415 70.6951 727.832 71 728.18 71.3977C728.529 71.7955 728.798 72.2727 728.987 72.8295C729.177 73.3826 729.271 74 729.271 74.6818C729.271 75.3561 729.177 75.9697 728.987 76.5227C728.798 77.0758 728.529 77.5511 728.18 77.9489C727.832 78.3428 727.415 78.6477 726.93 78.8636C726.446 79.0758 725.908 79.1818 725.317 79.1818ZM725.317 77.9773C725.768 77.9773 726.156 77.8902 726.482 77.7159C726.811 77.5379 727.082 77.2955 727.294 76.9886C727.51 76.678 727.669 76.3258 727.771 75.9318C727.877 75.5341 727.93 75.1174 727.93 74.6818C727.93 74.0985 727.838 73.5549 727.652 73.0511C727.466 72.5473 727.18 72.1402 726.794 71.8295C726.408 71.5189 725.915 71.3636 725.317 71.3636H725.089V77.9773H725.317ZM734.866 79.1818C734.079 79.1818 733.387 78.9943 732.793 78.6193C732.202 78.2443 731.74 77.7197 731.406 77.0455C731.077 76.3712 730.912 75.5833 730.912 74.6818C730.912 73.7727 731.077 72.9792 731.406 72.3011C731.74 71.6231 732.202 71.0966 732.793 70.7216C733.387 70.3466 734.079 70.1591 734.866 70.1591C735.654 70.1591 736.344 70.3466 736.935 70.7216C737.529 71.0966 737.991 71.6231 738.321 72.3011C738.654 72.9792 738.821 73.7727 738.821 74.6818C738.821 75.5833 738.654 76.3712 738.321 77.0455C737.991 77.7197 737.529 78.2443 736.935 78.6193C736.344 78.9943 735.654 79.1818 734.866 79.1818ZM734.866 77.9773C735.465 77.9773 735.957 77.8239 736.344 77.517C736.73 77.2102 737.016 76.8068 737.202 76.3068C737.387 75.8068 737.48 75.2652 737.48 74.6818C737.48 74.0985 737.387 73.5549 737.202 73.0511C737.016 72.5473 736.73 72.1402 736.344 71.8295C735.957 71.5189 735.465 71.3636 734.866 71.3636C734.268 71.3636 733.776 71.5189 733.389 71.8295C733.003 72.1402 732.717 72.5473 732.531 73.0511C732.346 73.5549 732.253 74.0985 732.253 74.6818C732.253 75.2652 732.346 75.8068 732.531 76.3068C732.717 76.8068 733.003 77.2102 733.389 77.517C733.776 77.8239 734.268 77.9773 734.866 77.9773ZM740.868 82.2727V70.2727H742.163V71.6591H742.322C742.421 71.5076 742.557 71.3144 742.732 71.0795C742.91 70.8409 743.163 70.6288 743.493 70.4432C743.826 70.2538 744.277 70.1591 744.845 70.1591C745.58 70.1591 746.228 70.3428 746.788 70.7102C747.349 71.0777 747.786 71.5985 748.101 72.2727C748.415 72.947 748.572 73.7424 748.572 74.6591C748.572 75.5833 748.415 76.3845 748.101 77.0625C747.786 77.7367 747.351 78.2595 746.794 78.6307C746.237 78.9981 745.595 79.1818 744.868 79.1818C744.307 79.1818 743.858 79.089 743.521 78.9034C743.184 78.714 742.925 78.5 742.743 78.2614C742.561 78.0189 742.421 77.8182 742.322 77.6591H742.209V82.2727H740.868ZM742.186 74.6364C742.186 75.2955 742.283 75.8769 742.476 76.3807C742.669 76.8807 742.951 77.2727 743.322 77.5568C743.694 77.8371 744.148 77.9773 744.686 77.9773C745.247 77.9773 745.714 77.8295 746.089 77.5341C746.468 77.2348 746.752 76.8333 746.942 76.3295C747.135 75.822 747.232 75.2576 747.232 74.6364C747.232 74.0227 747.137 73.4697 746.947 72.9773C746.762 72.4811 746.48 72.089 746.101 71.8011C745.726 71.5095 745.254 71.3636 744.686 71.3636C744.141 71.3636 743.682 71.5019 743.311 71.7784C742.94 72.0511 742.66 72.4337 742.47 72.9261C742.281 73.4148 742.186 73.9848 742.186 74.6364ZM755.391 77.1818L758.436 70.2727H759.709L755.936 79H754.845L751.141 70.2727H752.391L755.391 77.1818ZM751.959 70.2727V79H750.618V70.2727H751.959ZM758.822 79V70.2727H760.163V79H758.822ZM765.186 79.2045C764.633 79.2045 764.131 79.1004 763.68 78.892C763.23 78.6799 762.872 78.375 762.607 77.9773C762.341 77.5758 762.209 77.0909 762.209 76.5227C762.209 76.0227 762.307 75.6174 762.504 75.3068C762.701 74.9924 762.964 74.7462 763.294 74.5682C763.624 74.3902 763.987 74.2576 764.385 74.1705C764.786 74.0795 765.19 74.0076 765.595 73.9545C766.125 73.8864 766.555 73.8352 766.885 73.8011C767.218 73.7633 767.461 73.7008 767.612 73.6136C767.768 73.5265 767.845 73.375 767.845 73.1591V73.1136C767.845 72.553 767.692 72.1174 767.385 71.8068C767.082 71.4962 766.622 71.3409 766.004 71.3409C765.364 71.3409 764.862 71.4811 764.499 71.7614C764.135 72.0417 763.879 72.3409 763.732 72.6591L762.459 72.2045C762.686 71.6742 762.989 71.2614 763.368 70.9659C763.75 70.6667 764.167 70.4583 764.618 70.3409C765.072 70.2197 765.519 70.1591 765.959 70.1591C766.239 70.1591 766.561 70.1932 766.925 70.2614C767.292 70.3258 767.646 70.4602 767.987 70.6648C768.332 70.8693 768.618 71.178 768.845 71.5909C769.072 72.0038 769.186 72.5568 769.186 73.25V79H767.845V77.8182H767.777C767.686 78.0076 767.535 78.2102 767.322 78.4261C767.11 78.642 766.828 78.8258 766.476 78.9773C766.124 79.1288 765.694 79.2045 765.186 79.2045ZM765.391 78C765.921 78 766.368 77.8958 766.732 77.6875C767.099 77.4792 767.375 77.2102 767.561 76.8807C767.75 76.5511 767.845 76.2045 767.845 75.8409V74.6136C767.788 74.6818 767.663 74.7443 767.47 74.8011C767.281 74.8542 767.061 74.9015 766.811 74.9432C766.565 74.9811 766.324 75.0152 766.089 75.0455C765.858 75.072 765.671 75.0947 765.527 75.1136C765.179 75.1591 764.853 75.233 764.55 75.3352C764.25 75.4337 764.008 75.5833 763.822 75.7841C763.641 75.9811 763.55 76.25 763.55 76.5909C763.55 77.0568 763.722 77.4091 764.067 77.6477C764.415 77.8826 764.857 78 765.391 78ZM776.134 79V70.2727H779.702C780.641 70.2727 781.387 70.4848 781.94 70.9091C782.493 71.3333 782.77 71.8939 782.77 72.5909C782.77 73.1212 782.613 73.5322 782.298 73.8239C781.984 74.1117 781.58 74.3068 781.088 74.4091C781.41 74.4545 781.723 74.5682 782.026 74.75C782.332 74.9318 782.586 75.1818 782.787 75.5C782.988 75.8144 783.088 76.2008 783.088 76.6591C783.088 77.1061 782.974 77.5057 782.747 77.858C782.52 78.2102 782.194 78.4886 781.77 78.6932C781.346 78.8977 780.838 79 780.247 79H776.134ZM777.406 77.7727H780.247C780.709 77.7727 781.071 77.6629 781.332 77.4432C781.594 77.2235 781.724 76.9242 781.724 76.5455C781.724 76.0947 781.594 75.7405 781.332 75.483C781.071 75.2216 780.709 75.0909 780.247 75.0909H777.406V77.7727ZM777.406 73.9318H779.702C780.062 73.9318 780.37 73.8826 780.628 73.7841C780.885 73.6818 781.082 73.5379 781.219 73.3523C781.359 73.1629 781.429 72.9394 781.429 72.6818C781.429 72.3144 781.276 72.0265 780.969 71.8182C780.662 71.6061 780.24 71.5 779.702 71.5H777.406V73.9318ZM790.413 79.1591V77.8409H791.141C791.421 77.8409 791.656 77.786 791.845 77.6761C792.038 77.5663 792.197 77.4242 792.322 77.25C792.451 77.0758 792.557 76.8939 792.641 76.7045L792.822 76.2727L788.8 67.3636H790.322L793.527 74.5909L796.459 67.3636H797.959L793.936 77.1136C793.777 77.4773 793.595 77.8144 793.391 78.125C793.19 78.4356 792.915 78.6856 792.567 78.875C792.222 79.0644 791.754 79.1591 791.163 79.1591H790.413ZM799.057 76.7727H800.489C800.519 77.1667 800.697 77.4659 801.023 77.6705C801.352 77.875 801.78 77.9773 802.307 77.9773C802.845 77.9773 803.305 77.8674 803.688 77.6477C804.07 77.4242 804.261 77.0644 804.261 76.5682C804.261 76.2765 804.189 76.0227 804.045 75.8068C803.902 75.5871 803.699 75.4167 803.438 75.2955C803.176 75.1742 802.867 75.1136 802.511 75.1136H801.011V73.9091H802.511C803.045 73.9091 803.439 73.7879 803.693 73.5455C803.951 73.303 804.08 73 804.08 72.6364C804.08 72.2462 803.941 71.9337 803.665 71.6989C803.388 71.4602 802.996 71.3409 802.489 71.3409C801.977 71.3409 801.551 71.4564 801.21 71.6875C800.869 71.9148 800.689 72.2083 800.67 72.5682H799.261C799.277 72.0985 799.42 71.6837 799.693 71.3239C799.966 70.9602 800.337 70.6761 800.807 70.4716C801.277 70.2633 801.814 70.1591 802.42 70.1591C803.034 70.1591 803.566 70.267 804.017 70.483C804.472 70.6951 804.822 70.9848 805.068 71.3523C805.318 71.7159 805.443 72.1288 805.443 72.5909C805.443 73.0833 805.305 73.4811 805.028 73.7841C804.752 74.0871 804.405 74.303 803.989 74.4318V74.5227C804.318 74.5455 804.604 74.6515 804.847 74.8409C805.093 75.0265 805.284 75.2708 805.42 75.5739C805.557 75.8731 805.625 76.2045 805.625 76.5682C805.625 77.0985 805.483 77.5606 805.199 77.9545C804.915 78.3447 804.525 78.6477 804.028 78.8636C803.532 79.0758 802.966 79.1818 802.33 79.1818C801.712 79.1818 801.159 79.0814 800.67 78.8807C800.182 78.6761 799.794 78.3939 799.506 78.0341C799.222 77.6705 799.072 77.25 799.057 76.7727ZM813.986 67L814.668 67.8182C814.402 68.0758 814.096 68.2557 813.747 68.358C813.399 68.4602 813.005 68.5227 812.565 68.5455C812.126 68.5682 811.637 68.5909 811.099 68.6136C810.493 68.6364 809.991 68.7841 809.594 69.0568C809.196 69.3295 808.889 69.7235 808.673 70.2386C808.457 70.7538 808.319 71.3864 808.259 72.1364H808.372C808.668 71.5909 809.077 71.1894 809.599 70.9318C810.122 70.6742 810.683 70.5455 811.281 70.5455C811.963 70.5455 812.577 70.7045 813.122 71.0227C813.668 71.3409 814.099 71.8125 814.418 72.4375C814.736 73.0625 814.895 73.8333 814.895 74.75C814.895 75.6629 814.732 76.4508 814.406 77.1136C814.084 77.7765 813.632 78.2879 813.048 78.6477C812.469 79.0038 811.789 79.1818 811.009 79.1818C810.228 79.1818 809.545 78.9981 808.957 78.6307C808.37 78.2595 807.914 77.7102 807.588 76.983C807.262 76.2519 807.099 75.3485 807.099 74.2727V73.3409C807.099 71.3977 807.429 69.9242 808.088 68.9205C808.751 67.9167 809.747 67.3977 811.077 67.3636C811.546 67.3485 811.965 67.3447 812.332 67.3523C812.7 67.3598 813.02 67.3428 813.293 67.3011C813.565 67.2595 813.796 67.1591 813.986 67ZM811.009 77.9773C811.535 77.9773 811.988 77.8447 812.366 77.5795C812.749 77.3144 813.043 76.9413 813.247 76.4602C813.452 75.9754 813.554 75.4053 813.554 74.75C813.554 74.1136 813.45 73.572 813.241 73.125C813.037 72.678 812.743 72.3371 812.361 72.1023C811.978 71.8674 811.52 71.75 810.986 71.75C810.596 71.75 810.245 71.8163 809.935 71.9489C809.624 72.0814 809.359 72.2765 809.139 72.5341C808.92 72.7917 808.749 73.1061 808.628 73.4773C808.51 73.8485 808.448 74.2727 808.44 74.75C808.44 75.7273 808.67 76.5095 809.128 77.0966C809.586 77.6837 810.213 77.9773 811.009 77.9773ZM820.605 79.1818C819.764 79.1818 819.039 78.9962 818.429 78.625C817.823 78.25 817.355 77.7273 817.026 77.0568C816.7 76.3826 816.537 75.5985 816.537 74.7045C816.537 73.8106 816.7 73.0227 817.026 72.3409C817.355 71.6553 817.813 71.1212 818.401 70.7386C818.991 70.3523 819.681 70.1591 820.469 70.1591C820.923 70.1591 821.372 70.2348 821.815 70.3864C822.259 70.5379 822.662 70.7841 823.026 71.125C823.389 71.4621 823.679 71.9091 823.895 72.4659C824.111 73.0227 824.219 73.7083 824.219 74.5227V75.0909H817.491V73.9318H822.855C822.855 73.4394 822.757 73 822.56 72.6136C822.366 72.2273 822.09 71.9223 821.73 71.6989C821.374 71.4754 820.954 71.3636 820.469 71.3636C819.935 71.3636 819.473 71.4962 819.082 71.7614C818.696 72.0227 818.399 72.3636 818.19 72.7841C817.982 73.2045 817.878 73.6553 817.878 74.1364V74.9091C817.878 75.5682 817.991 76.1269 818.219 76.5852C818.45 77.0398 818.77 77.3864 819.179 77.625C819.588 77.8598 820.063 77.9773 820.605 77.9773C820.957 77.9773 821.276 77.928 821.56 77.8295C821.848 77.7273 822.096 77.5758 822.304 77.375C822.512 77.1705 822.673 76.9167 822.787 76.6136L824.082 76.9773C823.946 77.4167 823.717 77.803 823.395 78.1364C823.073 78.4659 822.675 78.7235 822.202 78.9091C821.728 79.0909 821.196 79.1818 820.605 79.1818ZM826.259 79V70.2727H827.599V74.0682H828.486L831.622 70.2727H833.349L829.827 74.4773L833.395 79H831.668L828.804 75.3182H827.599V79H826.259ZM836.193 77.0227L840.398 70.2727H841.943V79H840.602V72.25L836.42 79H834.852V70.2727H836.193V77.0227ZM847.945 79.1818C847.126 79.1818 846.422 78.9886 845.831 78.6023C845.24 78.2159 844.786 77.6837 844.467 77.0057C844.149 76.3277 843.99 75.553 843.99 74.6818C843.99 73.7955 844.153 73.0133 844.479 72.3352C844.808 71.6534 845.267 71.1212 845.854 70.7386C846.445 70.3523 847.134 70.1591 847.922 70.1591C848.536 70.1591 849.089 70.2727 849.581 70.5C850.073 70.7273 850.477 71.0455 850.791 71.4545C851.106 71.8636 851.301 72.3409 851.376 72.8864H850.036C849.933 72.4886 849.706 72.1364 849.354 71.8295C849.005 71.5189 848.536 71.3636 847.945 71.3636C847.422 71.3636 846.964 71.5 846.57 71.7727C846.179 72.0417 845.875 72.4223 845.655 72.9148C845.439 73.4034 845.331 73.9773 845.331 74.6364C845.331 75.3106 845.437 75.8977 845.649 76.3977C845.865 76.8977 846.168 77.286 846.558 77.5625C846.952 77.839 847.414 77.9773 847.945 77.9773C848.293 77.9773 848.609 77.9167 848.893 77.7955C849.178 77.6742 849.418 77.5 849.615 77.2727C849.812 77.0455 849.952 76.7727 850.036 76.4545H851.376C851.301 76.9697 851.113 77.4337 850.814 77.8466C850.518 78.2557 850.126 78.5814 849.638 78.8239C849.153 79.0625 848.589 79.1818 847.945 79.1818ZM852.649 71.5227V70.2727H859.74V71.5227H856.876V79H855.536V71.5227H852.649ZM863.811 79.2045C863.258 79.2045 862.756 79.1004 862.305 78.892C861.855 78.6799 861.497 78.375 861.232 77.9773C860.966 77.5758 860.834 77.0909 860.834 76.5227C860.834 76.0227 860.932 75.6174 861.129 75.3068C861.326 74.9924 861.589 74.7462 861.919 74.5682C862.249 74.3902 862.612 74.2576 863.01 74.1705C863.411 74.0795 863.815 74.0076 864.22 73.9545C864.75 73.8864 865.18 73.8352 865.51 73.8011C865.843 73.7633 866.086 73.7008 866.237 73.6136C866.393 73.5265 866.47 73.375 866.47 73.1591V73.1136C866.47 72.553 866.317 72.1174 866.01 71.8068C865.707 71.4962 865.247 71.3409 864.629 71.3409C863.989 71.3409 863.487 71.4811 863.124 71.7614C862.76 72.0417 862.504 72.3409 862.357 72.6591L861.084 72.2045C861.311 71.6742 861.614 71.2614 861.993 70.9659C862.375 70.6667 862.792 70.4583 863.243 70.3409C863.697 70.2197 864.144 70.1591 864.584 70.1591C864.864 70.1591 865.186 70.1932 865.55 70.2614C865.917 70.3258 866.271 70.4602 866.612 70.6648C866.957 70.8693 867.243 71.178 867.47 71.5909C867.697 72.0038 867.811 72.5568 867.811 73.25V79H866.47V77.8182H866.402C866.311 78.0076 866.16 78.2102 865.947 78.4261C865.735 78.642 865.453 78.8258 865.101 78.9773C864.749 79.1288 864.319 79.2045 863.811 79.2045ZM864.016 78C864.546 78 864.993 77.8958 865.357 77.6875C865.724 77.4792 866 77.2102 866.186 76.8807C866.375 76.5511 866.47 76.2045 866.47 75.8409V74.6136C866.413 74.6818 866.288 74.7443 866.095 74.8011C865.906 74.8542 865.686 74.9015 865.436 74.9432C865.19 74.9811 864.949 75.0152 864.714 75.0455C864.483 75.072 864.296 75.0947 864.152 75.1136C863.804 75.1591 863.478 75.233 863.175 75.3352C862.875 75.4337 862.633 75.5833 862.447 75.7841C862.266 75.9811 862.175 76.25 862.175 76.5909C862.175 77.0568 862.347 77.4091 862.692 77.6477C863.04 77.8826 863.482 78 864.016 78ZM876.099 74.0227V75.2727H871.281V74.0227H876.099ZM871.599 70.2727V79H870.259V70.2727H871.599ZM877.122 70.2727V79H875.781V70.2727H877.122ZM883.23 79.1818C882.389 79.1818 881.664 78.9962 881.054 78.625C880.448 78.25 879.98 77.7273 879.651 77.0568C879.325 76.3826 879.162 75.5985 879.162 74.7045C879.162 73.8106 879.325 73.0227 879.651 72.3409C879.98 71.6553 880.438 71.1212 881.026 70.7386C881.616 70.3523 882.306 70.1591 883.094 70.1591C883.548 70.1591 883.997 70.2348 884.44 70.3864C884.884 70.5379 885.287 70.7841 885.651 71.125C886.014 71.4621 886.304 71.9091 886.52 72.4659C886.736 73.0227 886.844 73.7083 886.844 74.5227V75.0909H880.116V73.9318H885.48C885.48 73.4394 885.382 73 885.185 72.6136C884.991 72.2273 884.715 71.9223 884.355 71.6989C883.999 71.4754 883.579 71.3636 883.094 71.3636C882.56 71.3636 882.098 71.4962 881.707 71.7614C881.321 72.0227 881.024 72.3636 880.815 72.7841C880.607 73.2045 880.503 73.6553 880.503 74.1364V74.9091C880.503 75.5682 880.616 76.1269 880.844 76.5852C881.075 77.0398 881.395 77.3864 881.804 77.625C882.213 77.8598 882.688 77.9773 883.23 77.9773C883.582 77.9773 883.901 77.928 884.185 77.8295C884.473 77.7273 884.721 77.5758 884.929 77.375C885.137 77.1705 885.298 76.9167 885.412 76.6136L886.707 76.9773C886.571 77.4167 886.342 77.803 886.02 78.1364C885.698 78.4659 885.3 78.7235 884.827 78.9091C884.353 79.0909 883.821 79.1818 883.23 79.1818ZM890.884 77.4091L890.793 78.0227C890.728 78.4545 890.63 78.9167 890.497 79.4091C890.368 79.9015 890.234 80.3655 890.094 80.8011C889.954 81.2367 889.838 81.5833 889.747 81.8409H888.724C888.774 81.5985 888.838 81.2784 888.918 80.8807C888.997 80.483 889.077 80.0379 889.156 79.5455C889.24 79.0568 889.308 78.5568 889.361 78.0455L889.429 77.4091H890.884ZM897.868 79V70.2727H899.209V74.0682H900.095L903.232 70.2727H904.959L901.436 74.4773L905.004 79H903.277L900.413 75.3182H899.209V79H897.868ZM909.648 79.1818C908.86 79.1818 908.169 78.9943 907.574 78.6193C906.983 78.2443 906.521 77.7197 906.188 77.0455C905.858 76.3712 905.693 75.5833 905.693 74.6818C905.693 73.7727 905.858 72.9792 906.188 72.3011C906.521 71.6231 906.983 71.0966 907.574 70.7216C908.169 70.3466 908.86 70.1591 909.648 70.1591C910.436 70.1591 911.125 70.3466 911.716 70.7216C912.311 71.0966 912.773 71.6231 913.102 72.3011C913.436 72.9792 913.602 73.7727 913.602 74.6818C913.602 75.5833 913.436 76.3712 913.102 77.0455C912.773 77.7197 912.311 78.2443 911.716 78.6193C911.125 78.9943 910.436 79.1818 909.648 79.1818ZM909.648 77.9773C910.246 77.9773 910.739 77.8239 911.125 77.517C911.511 77.2102 911.797 76.8068 911.983 76.3068C912.169 75.8068 912.261 75.2652 912.261 74.6818C912.261 74.0985 912.169 73.5549 911.983 73.0511C911.797 72.5473 911.511 72.1402 911.125 71.8295C910.739 71.5189 910.246 71.3636 909.648 71.3636C909.049 71.3636 908.557 71.5189 908.17 71.8295C907.784 72.1402 907.498 72.5473 907.312 73.0511C907.127 73.5549 907.034 74.0985 907.034 74.6818C907.034 75.2652 907.127 75.8068 907.312 76.3068C907.498 76.8068 907.784 77.2102 908.17 77.517C908.557 77.8239 909.049 77.9773 909.648 77.9773ZM914.509 71.5227V70.2727H921.599V71.5227H918.736V79H917.395V71.5227H914.509ZM926.648 79.1818C925.86 79.1818 925.169 78.9943 924.574 78.6193C923.983 78.2443 923.521 77.7197 923.188 77.0455C922.858 76.3712 922.693 75.5833 922.693 74.6818C922.693 73.7727 922.858 72.9792 923.188 72.3011C923.521 71.6231 923.983 71.0966 924.574 70.7216C925.169 70.3466 925.86 70.1591 926.648 70.1591C927.436 70.1591 928.125 70.3466 928.716 70.7216C929.311 71.0966 929.773 71.6231 930.102 72.3011C930.436 72.9792 930.602 73.7727 930.602 74.6818C930.602 75.5833 930.436 76.3712 930.102 77.0455C929.773 77.7197 929.311 78.2443 928.716 78.6193C928.125 78.9943 927.436 79.1818 926.648 79.1818ZM926.648 77.9773C927.246 77.9773 927.739 77.8239 928.125 77.517C928.511 77.2102 928.797 76.8068 928.983 76.3068C929.169 75.8068 929.261 75.2652 929.261 74.6818C929.261 74.0985 929.169 73.5549 928.983 73.0511C928.797 72.5473 928.511 72.1402 928.125 71.8295C927.739 71.5189 927.246 71.3636 926.648 71.3636C926.049 71.3636 925.557 71.5189 925.17 71.8295C924.784 72.1402 924.498 72.5473 924.312 73.0511C924.127 73.5549 924.034 74.0985 924.034 74.6818C924.034 75.2652 924.127 75.8068 924.312 76.3068C924.498 76.8068 924.784 77.2102 925.17 77.517C925.557 77.8239 926.049 77.9773 926.648 77.9773ZM932.649 82.2727V70.2727H933.945V71.6591H934.104C934.202 71.5076 934.339 71.3144 934.513 71.0795C934.691 70.8409 934.945 70.6288 935.274 70.4432C935.607 70.2538 936.058 70.1591 936.626 70.1591C937.361 70.1591 938.009 70.3428 938.57 70.7102C939.13 71.0777 939.568 71.5985 939.882 72.2727C940.196 72.947 940.354 73.7424 940.354 74.6591C940.354 75.5833 940.196 76.3845 939.882 77.0625C939.568 77.7367 939.132 78.2595 938.575 78.6307C938.018 78.9981 937.376 79.1818 936.649 79.1818C936.089 79.1818 935.64 79.089 935.303 78.9034C934.965 78.714 934.706 78.5 934.524 78.2614C934.342 78.0189 934.202 77.8182 934.104 77.6591H933.99V82.2727H932.649ZM933.967 74.6364C933.967 75.2955 934.064 75.8769 934.257 76.3807C934.45 76.8807 934.732 77.2727 935.104 77.5568C935.475 77.8371 935.929 77.9773 936.467 77.9773C937.028 77.9773 937.496 77.8295 937.871 77.5341C938.25 77.2348 938.534 76.8333 938.723 76.3295C938.916 75.822 939.013 75.2576 939.013 74.6364C939.013 74.0227 938.918 73.4697 938.729 72.9773C938.543 72.4811 938.261 72.089 937.882 71.8011C937.507 71.5095 937.036 71.3636 936.467 71.3636C935.922 71.3636 935.464 71.5019 935.092 71.7784C934.721 72.0511 934.441 72.4337 934.251 72.9261C934.062 73.4148 933.967 73.9848 933.967 74.6364ZM944.967 79.2045C944.414 79.2045 943.912 79.1004 943.462 78.892C943.011 78.6799 942.653 78.375 942.388 77.9773C942.123 77.5758 941.99 77.0909 941.99 76.5227C941.99 76.0227 942.089 75.6174 942.286 75.3068C942.482 74.9924 942.746 74.7462 943.075 74.5682C943.405 74.3902 943.768 74.2576 944.166 74.1705C944.568 74.0795 944.971 74.0076 945.376 73.9545C945.907 73.8864 946.337 73.8352 946.666 73.8011C947 73.7633 947.242 73.7008 947.393 73.6136C947.549 73.5265 947.626 73.375 947.626 73.1591V73.1136C947.626 72.553 947.473 72.1174 947.166 71.8068C946.863 71.4962 946.403 71.3409 945.786 71.3409C945.145 71.3409 944.643 71.4811 944.28 71.7614C943.916 72.0417 943.661 72.3409 943.513 72.6591L942.24 72.2045C942.467 71.6742 942.77 71.2614 943.149 70.9659C943.532 70.6667 943.948 70.4583 944.399 70.3409C944.854 70.2197 945.301 70.1591 945.74 70.1591C946.02 70.1591 946.342 70.1932 946.706 70.2614C947.073 70.3258 947.428 70.4602 947.768 70.6648C948.113 70.8693 948.399 71.178 948.626 71.5909C948.854 72.0038 948.967 72.5568 948.967 73.25V79H947.626V77.8182H947.558C947.467 78.0076 947.316 78.2102 947.104 78.4261C946.892 78.642 946.609 78.8258 946.257 78.9773C945.905 79.1288 945.475 79.2045 944.967 79.2045ZM945.172 78C945.702 78 946.149 77.8958 946.513 77.6875C946.88 77.4792 947.157 77.2102 947.342 76.8807C947.532 76.5511 947.626 76.2045 947.626 75.8409V74.6136C947.57 74.6818 947.445 74.7443 947.251 74.8011C947.062 74.8542 946.842 74.9015 946.592 74.9432C946.346 74.9811 946.106 75.0152 945.871 75.0455C945.64 75.072 945.452 75.0947 945.308 75.1136C944.96 75.1591 944.634 75.233 944.331 75.3352C944.032 75.4337 943.789 75.5833 943.604 75.7841C943.422 75.9811 943.331 76.25 943.331 76.5909C943.331 77.0568 943.503 77.4091 943.848 77.6477C944.196 77.8826 944.638 78 945.172 78ZM956.665 79V71.5H954.347C953.824 71.5 953.413 71.6212 953.114 71.8636C952.814 72.1061 952.665 72.4394 952.665 72.8636C952.665 73.2803 952.799 73.608 953.068 73.8466C953.341 74.0852 953.714 74.2045 954.188 74.2045H957.006V75.4545H954.188C953.597 75.4545 953.087 75.3504 952.659 75.142C952.231 74.9337 951.902 74.6364 951.67 74.25C951.439 73.8598 951.324 73.3977 951.324 72.8636C951.324 72.3258 951.445 71.8636 951.688 71.4773C951.93 71.0909 952.277 70.7936 952.727 70.5852C953.182 70.3769 953.722 70.2727 954.347 70.2727H957.938V79H956.665ZM950.847 79L953.324 74.6591H954.778L952.301 79H950.847ZM968.445 79.1818C967.657 79.1818 966.965 78.9943 966.371 78.6193C965.78 78.2443 965.318 77.7197 964.984 77.0455C964.655 76.3712 964.49 75.5833 964.49 74.6818C964.49 73.7727 964.655 72.9792 964.984 72.3011C965.318 71.6231 965.78 71.0966 966.371 70.7216C966.965 70.3466 967.657 70.1591 968.445 70.1591C969.232 70.1591 969.922 70.3466 970.513 70.7216C971.107 71.0966 971.57 71.6231 971.899 72.3011C972.232 72.9792 972.399 73.7727 972.399 74.6818C972.399 75.5833 972.232 76.3712 971.899 77.0455C971.57 77.7197 971.107 78.2443 970.513 78.6193C969.922 78.9943 969.232 79.1818 968.445 79.1818ZM968.445 77.9773C969.043 77.9773 969.536 77.8239 969.922 77.517C970.308 77.2102 970.594 76.8068 970.78 76.3068C970.965 75.8068 971.058 75.2652 971.058 74.6818C971.058 74.0985 970.965 73.5549 970.78 73.0511C970.594 72.5473 970.308 72.1402 969.922 71.8295C969.536 71.5189 969.043 71.3636 968.445 71.3636C967.846 71.3636 967.354 71.5189 966.967 71.8295C966.581 72.1402 966.295 72.5473 966.109 73.0511C965.924 73.5549 965.831 74.0985 965.831 74.6818C965.831 75.2652 965.924 75.8068 966.109 76.3068C966.295 76.8068 966.581 77.2102 966.967 77.517C967.354 77.8239 967.846 77.9773 968.445 77.9773ZM980.923 67L981.605 67.8182C981.34 68.0758 981.033 68.2557 980.685 68.358C980.336 68.4602 979.942 68.5227 979.503 68.5455C979.063 68.5682 978.575 68.5909 978.037 68.6136C977.431 68.6364 976.929 68.7841 976.531 69.0568C976.134 69.3295 975.827 69.7235 975.611 70.2386C975.395 70.7538 975.257 71.3864 975.196 72.1364H975.31C975.605 71.5909 976.014 71.1894 976.537 70.9318C977.06 70.6742 977.62 70.5455 978.219 70.5455C978.901 70.5455 979.514 70.7045 980.06 71.0227C980.605 71.3409 981.037 71.8125 981.355 72.4375C981.673 73.0625 981.832 73.8333 981.832 74.75C981.832 75.6629 981.67 76.4508 981.344 77.1136C981.022 77.7765 980.569 78.2879 979.986 78.6477C979.406 79.0038 978.726 79.1818 977.946 79.1818C977.166 79.1818 976.482 78.9981 975.895 78.6307C975.308 78.2595 974.851 77.7102 974.526 76.983C974.2 76.2519 974.037 75.3485 974.037 74.2727V73.3409C974.037 71.3977 974.366 69.9242 975.026 68.9205C975.688 67.9167 976.685 67.3977 978.014 67.3636C978.484 67.3485 978.902 67.3447 979.27 67.3523C979.637 67.3598 979.957 67.3428 980.23 67.3011C980.503 67.2595 980.734 67.1591 980.923 67ZM977.946 77.9773C978.473 77.9773 978.925 77.8447 979.304 77.5795C979.687 77.3144 979.98 76.9413 980.185 76.4602C980.389 75.9754 980.491 75.4053 980.491 74.75C980.491 74.1136 980.387 73.572 980.179 73.125C979.974 72.678 979.681 72.3371 979.298 72.1023C978.916 71.8674 978.457 71.75 977.923 71.75C977.533 71.75 977.183 71.8163 976.872 71.9489C976.562 72.0814 976.296 72.2765 976.077 72.5341C975.857 72.7917 975.687 73.1061 975.565 73.4773C975.448 73.8485 975.385 74.2727 975.378 74.75C975.378 75.7273 975.607 76.5095 976.065 77.0966C976.524 77.6837 977.151 77.9773 977.946 77.9773ZM983.111 79V77.75H983.429C983.69 77.75 983.908 77.6989 984.082 77.5966C984.257 77.4905 984.397 77.3068 984.503 77.0455C984.613 76.7803 984.696 76.4129 984.753 75.9432C984.813 75.4697 984.857 74.8674 984.884 74.1364L985.043 70.2727H990.861V79H989.52V71.5227H986.315L986.179 74.6364C986.149 75.3523 986.084 75.983 985.986 76.5284C985.891 77.0701 985.745 77.5246 985.548 77.892C985.355 78.2595 985.098 78.536 984.776 78.7216C984.454 78.9072 984.05 79 983.565 79H983.111ZM996.98 79.1818C996.139 79.1818 995.414 78.9962 994.804 78.625C994.198 78.25 993.73 77.7273 993.401 77.0568C993.075 76.3826 992.912 75.5985 992.912 74.7045C992.912 73.8106 993.075 73.0227 993.401 72.3409C993.73 71.6553 994.188 71.1212 994.776 70.7386C995.366 70.3523 996.056 70.1591 996.844 70.1591C997.298 70.1591 997.747 70.2348 998.19 70.3864C998.634 70.5379 999.037 70.7841 999.401 71.125C999.764 71.4621 1000.05 71.9091 1000.27 72.4659C1000.49 73.0227 1000.59 73.7083 1000.59 74.5227V75.0909H993.866V73.9318H999.23C999.23 73.4394 999.132 73 998.935 72.6136C998.741 72.2273 998.465 71.9223 998.105 71.6989C997.749 71.4754 997.329 71.3636 996.844 71.3636C996.31 71.3636 995.848 71.4962 995.457 71.7614C995.071 72.0227 994.774 72.3636 994.565 72.7841C994.357 73.2045 994.253 73.6553 994.253 74.1364V74.9091C994.253 75.5682 994.366 76.1269 994.594 76.5852C994.825 77.0398 995.145 77.3864 995.554 77.625C995.963 77.8598 996.438 77.9773 996.98 77.9773C997.332 77.9773 997.651 77.928 997.935 77.8295C998.223 77.7273 998.471 77.5758 998.679 77.375C998.887 77.1705 999.048 76.9167 999.162 76.6136L1000.46 76.9773C1000.32 77.4167 1000.09 77.803 999.77 78.1364C999.448 78.4659 999.05 78.7235 998.577 78.9091C998.103 79.0909 997.571 79.1818 996.98 79.1818ZM1008.02 70.2727V71.5227H1003.97V79H1002.63V70.2727H1008.02ZM1016.25 70.2727V79H1014.91V70.2727H1016.25ZM1015.73 74.4318V75.6818C1015.43 75.7955 1015.12 75.8958 1014.83 75.983C1014.53 76.0663 1014.21 76.1326 1013.88 76.1818C1013.55 76.2273 1013.19 76.25 1012.8 76.25C1011.81 76.25 1011.01 75.983 1010.42 75.4489C1009.82 74.9148 1009.52 74.1136 1009.52 73.0455V70.25H1010.87V73.0455C1010.87 73.4924 1010.95 73.8598 1011.12 74.1477C1011.29 74.4356 1011.52 74.6496 1011.81 74.7898C1012.11 74.9299 1012.43 75 1012.8 75C1013.37 75 1013.88 74.9489 1014.34 74.8466C1014.8 74.7405 1015.26 74.6023 1015.73 74.4318ZM1021.28 79.2045C1020.73 79.2045 1020.22 79.1004 1019.77 78.892C1019.32 78.6799 1018.97 78.375 1018.7 77.9773C1018.44 77.5758 1018.3 77.0909 1018.3 76.5227C1018.3 76.0227 1018.4 75.6174 1018.6 75.3068C1018.79 74.9924 1019.06 74.7462 1019.39 74.5682C1019.72 74.3902 1020.08 74.2576 1020.48 74.1705C1020.88 74.0795 1021.28 74.0076 1021.69 73.9545C1022.22 73.8864 1022.65 73.8352 1022.98 73.8011C1023.31 73.7633 1023.55 73.7008 1023.71 73.6136C1023.86 73.5265 1023.94 73.375 1023.94 73.1591V73.1136C1023.94 72.553 1023.79 72.1174 1023.48 71.8068C1023.18 71.4962 1022.72 71.3409 1022.1 71.3409C1021.46 71.3409 1020.96 71.4811 1020.59 71.7614C1020.23 72.0417 1019.97 72.3409 1019.83 72.6591L1018.55 72.2045C1018.78 71.6742 1019.08 71.2614 1019.46 70.9659C1019.84 70.6667 1020.26 70.4583 1020.71 70.3409C1021.17 70.2197 1021.61 70.1591 1022.05 70.1591C1022.33 70.1591 1022.65 70.1932 1023.02 70.2614C1023.39 70.3258 1023.74 70.4602 1024.08 70.6648C1024.43 70.8693 1024.71 71.178 1024.94 71.5909C1025.17 72.0038 1025.28 72.5568 1025.28 73.25V79H1023.94V77.8182H1023.87C1023.78 78.0076 1023.63 78.2102 1023.42 78.4261C1023.2 78.642 1022.92 78.8258 1022.57 78.9773C1022.22 79.1288 1021.79 79.2045 1021.28 79.2045ZM1021.48 78C1022.01 78 1022.46 77.8958 1022.83 77.6875C1023.19 77.4792 1023.47 77.2102 1023.65 76.8807C1023.84 76.5511 1023.94 76.2045 1023.94 75.8409V74.6136C1023.88 74.6818 1023.76 74.7443 1023.56 74.8011C1023.37 74.8542 1023.15 74.9015 1022.9 74.9432C1022.66 74.9811 1022.42 75.0152 1022.18 75.0455C1021.95 75.072 1021.76 75.0947 1021.62 75.1136C1021.27 75.1591 1020.95 75.233 1020.64 75.3352C1020.34 75.4337 1020.1 75.5833 1019.92 75.7841C1019.73 75.9811 1019.64 76.25 1019.64 76.5909C1019.64 77.0568 1019.82 77.4091 1020.16 77.6477C1020.51 77.8826 1020.95 78 1021.48 78ZM1031.39 79.1818C1030.55 79.1818 1029.82 78.9962 1029.21 78.625C1028.6 78.25 1028.14 77.7273 1027.81 77.0568C1027.48 76.3826 1027.32 75.5985 1027.32 74.7045C1027.32 73.8106 1027.48 73.0227 1027.81 72.3409C1028.14 71.6553 1028.59 71.1212 1029.18 70.7386C1029.77 70.3523 1030.46 70.1591 1031.25 70.1591C1031.7 70.1591 1032.15 70.2348 1032.6 70.3864C1033.04 70.5379 1033.44 70.7841 1033.81 71.125C1034.17 71.4621 1034.46 71.9091 1034.68 72.4659C1034.89 73.0227 1035 73.7083 1035 74.5227V75.0909H1028.27V73.9318H1033.64C1033.64 73.4394 1033.54 73 1033.34 72.6136C1033.15 72.2273 1032.87 71.9223 1032.51 71.6989C1032.16 71.4754 1031.73 71.3636 1031.25 71.3636C1030.72 71.3636 1030.25 71.4962 1029.86 71.7614C1029.48 72.0227 1029.18 72.3636 1028.97 72.7841C1028.76 73.2045 1028.66 73.6553 1028.66 74.1364V74.9091C1028.66 75.5682 1028.77 76.1269 1029 76.5852C1029.23 77.0398 1029.55 77.3864 1029.96 77.625C1030.37 77.8598 1030.84 77.9773 1031.39 77.9773C1031.74 77.9773 1032.06 77.928 1032.34 77.8295C1032.63 77.7273 1032.88 77.5758 1033.09 77.375C1033.29 77.1705 1033.45 76.9167 1033.57 76.6136L1034.86 76.9773C1034.73 77.4167 1034.5 77.803 1034.18 78.1364C1033.85 78.4659 1033.46 78.7235 1032.98 78.9091C1032.51 79.0909 1031.98 79.1818 1031.39 79.1818ZM1036.23 71.5227V70.2727H1043.32V71.5227H1040.45V79H1039.11V71.5227H1036.23ZM436.204 100V91.2727H443.067V100H441.727V92.5227H437.545V100H436.204ZM449.062 100.182C448.274 100.182 447.583 99.9943 446.988 99.6193C446.397 99.2443 445.935 98.7197 445.602 98.0455C445.272 97.3712 445.107 96.5833 445.107 95.6818C445.107 94.7727 445.272 93.9792 445.602 93.3011C445.935 92.6231 446.397 92.0966 446.988 91.7216C447.583 91.3466 448.274 91.1591 449.062 91.1591C449.85 91.1591 450.539 91.3466 451.13 91.7216C451.725 92.0966 452.187 92.6231 452.516 93.3011C452.85 93.9792 453.016 94.7727 453.016 95.6818C453.016 96.5833 452.85 97.3712 452.516 98.0455C452.187 98.7197 451.725 99.2443 451.13 99.6193C450.539 99.9943 449.85 100.182 449.062 100.182ZM449.062 98.9773C449.66 98.9773 450.153 98.8239 450.539 98.517C450.925 98.2102 451.211 97.8068 451.397 97.3068C451.583 96.8068 451.675 96.2652 451.675 95.6818C451.675 95.0985 451.583 94.5549 451.397 94.0511C451.211 93.5473 450.925 93.1402 450.539 92.8295C450.153 92.5189 449.66 92.3636 449.062 92.3636C448.463 92.3636 447.971 92.5189 447.585 92.8295C447.198 93.1402 446.912 93.5473 446.727 94.0511C446.541 94.5549 446.448 95.0985 446.448 95.6818C446.448 96.2652 446.541 96.8068 446.727 97.3068C446.912 97.8068 447.198 98.2102 447.585 98.517C447.971 98.8239 448.463 98.9773 449.062 98.9773ZM455.063 100V91.2727H456.404V95.0682H457.29L460.427 91.2727H462.154L458.631 95.4773L462.2 100H460.472L457.609 96.3182H456.404V100H455.063ZM464.521 103.273C464.293 103.273 464.091 103.254 463.913 103.216C463.735 103.182 463.612 103.148 463.543 103.114L463.884 101.932C464.21 102.015 464.498 102.045 464.748 102.023C464.998 102 465.219 101.888 465.413 101.688C465.61 101.491 465.79 101.17 465.952 100.727L466.202 100.045L462.975 91.2727H464.43L466.839 98.2273H466.93L469.339 91.2727H470.793L467.089 101.273C466.922 101.723 466.716 102.097 466.469 102.392C466.223 102.691 465.937 102.913 465.612 103.057C465.29 103.201 464.926 103.273 464.521 103.273ZM472.563 100V91.2727H479.427V100H478.086V92.5227H473.904V100H472.563ZM481.876 100V91.2727H483.217V95.0682H484.103L487.239 91.2727H488.967L485.444 95.4773L489.012 100H487.285L484.421 96.3182H483.217V100H481.876ZM491.81 98.0227L496.015 91.2727H497.56V100H496.219V93.25L492.038 100H490.469V91.2727H491.81V98.0227ZM505.857 98.0227L510.062 91.2727H511.607V100H510.266V93.25L506.085 100H504.516V91.2727H505.857V98.0227ZM518.563 100V91.2727H525.427V100H524.086V92.5227H519.904V100H518.563ZM527.876 103.273V91.2727H529.171V92.6591H529.33C529.429 92.5076 529.565 92.3144 529.739 92.0795C529.917 91.8409 530.171 91.6288 530.501 91.4432C530.834 91.2538 531.285 91.1591 531.853 91.1591C532.588 91.1591 533.236 91.3428 533.796 91.7102C534.357 92.0777 534.794 92.5985 535.109 93.2727C535.423 93.947 535.58 94.7424 535.58 95.6591C535.58 96.5833 535.423 97.3845 535.109 98.0625C534.794 98.7367 534.359 99.2595 533.802 99.6307C533.245 99.9981 532.603 100.182 531.876 100.182C531.315 100.182 530.866 100.089 530.529 99.9034C530.192 99.714 529.933 99.5 529.751 99.2614C529.569 99.0189 529.429 98.8182 529.33 98.6591H529.217V103.273H527.876ZM529.194 95.6364C529.194 96.2955 529.29 96.8769 529.484 97.3807C529.677 97.8807 529.959 98.2727 530.33 98.5568C530.701 98.8371 531.156 98.9773 531.694 98.9773C532.254 98.9773 532.722 98.8295 533.097 98.5341C533.476 98.2348 533.76 97.8333 533.95 97.3295C534.143 96.822 534.239 96.2576 534.239 95.6364C534.239 95.0227 534.145 94.4697 533.955 93.9773C533.77 93.4811 533.487 93.089 533.109 92.8011C532.734 92.5095 532.262 92.3636 531.694 92.3636C531.148 92.3636 530.69 92.5019 530.319 92.7784C529.948 93.0511 529.667 93.4337 529.478 93.9261C529.289 94.4148 529.194 94.9848 529.194 95.6364ZM541.171 100.182C540.383 100.182 539.692 99.9943 539.097 99.6193C538.506 99.2443 538.044 98.7197 537.711 98.0455C537.381 97.3712 537.217 96.5833 537.217 95.6818C537.217 94.7727 537.381 93.9792 537.711 93.3011C538.044 92.6231 538.506 92.0966 539.097 91.7216C539.692 91.3466 540.383 91.1591 541.171 91.1591C541.959 91.1591 542.648 91.3466 543.239 91.7216C543.834 92.0966 544.296 92.6231 544.626 93.3011C544.959 93.9792 545.126 94.7727 545.126 95.6818C545.126 96.5833 544.959 97.3712 544.626 98.0455C544.296 98.7197 543.834 99.2443 543.239 99.6193C542.648 99.9943 541.959 100.182 541.171 100.182ZM541.171 98.9773C541.77 98.9773 542.262 98.8239 542.648 98.517C543.035 98.2102 543.321 97.8068 543.506 97.3068C543.692 96.8068 543.785 96.2652 543.785 95.6818C543.785 95.0985 543.692 94.5549 543.506 94.0511C543.321 93.5473 543.035 93.1402 542.648 92.8295C542.262 92.5189 541.77 92.3636 541.171 92.3636C540.573 92.3636 540.08 92.5189 539.694 92.8295C539.308 93.1402 539.022 93.5473 538.836 94.0511C538.65 94.5549 538.558 95.0985 538.558 95.6818C538.558 96.2652 538.65 96.8068 538.836 97.3068C539.022 97.8068 539.308 98.2102 539.694 98.517C540.08 98.8239 540.573 98.9773 541.171 98.9773ZM546.241 102.5V98.75H546.968C547.146 98.5644 547.299 98.3636 547.428 98.1477C547.557 97.9318 547.669 97.6761 547.763 97.3807C547.862 97.0814 547.945 96.7178 548.013 96.2898C548.082 95.858 548.142 95.3371 548.195 94.7273L548.491 91.2727H554.036V98.75H555.377V102.5H554.036V100H547.582V102.5H546.241ZM548.491 98.75H552.695V92.5227H549.741L549.513 94.7273C549.419 95.6402 549.301 96.4375 549.161 97.1193C549.021 97.8011 548.798 98.3447 548.491 98.75ZM559.725 100.205C559.172 100.205 558.67 100.1 558.219 99.892C557.769 99.6799 557.411 99.375 557.146 98.9773C556.88 98.5758 556.748 98.0909 556.748 97.5227C556.748 97.0227 556.846 96.6174 557.043 96.3068C557.24 95.9924 557.504 95.7462 557.833 95.5682C558.163 95.3902 558.526 95.2576 558.924 95.1705C559.326 95.0795 559.729 95.0076 560.134 94.9545C560.665 94.8864 561.094 94.8352 561.424 94.8011C561.757 94.7633 562 94.7008 562.151 94.6136C562.307 94.5265 562.384 94.375 562.384 94.1591V94.1136C562.384 93.553 562.231 93.1174 561.924 92.8068C561.621 92.4962 561.161 92.3409 560.543 92.3409C559.903 92.3409 559.401 92.4811 559.038 92.7614C558.674 93.0417 558.418 93.3409 558.271 93.6591L556.998 93.2045C557.225 92.6742 557.528 92.2614 557.907 91.9659C558.29 91.6667 558.706 91.4583 559.157 91.3409C559.612 91.2197 560.058 91.1591 560.498 91.1591C560.778 91.1591 561.1 91.1932 561.464 91.2614C561.831 91.3258 562.185 91.4602 562.526 91.6648C562.871 91.8693 563.157 92.178 563.384 92.5909C563.612 93.0038 563.725 93.5568 563.725 94.25V100H562.384V98.8182H562.316C562.225 99.0076 562.074 99.2102 561.862 99.4261C561.649 99.642 561.367 99.8258 561.015 99.9773C560.663 100.129 560.233 100.205 559.725 100.205ZM559.93 99C560.46 99 560.907 98.8958 561.271 98.6875C561.638 98.4792 561.915 98.2102 562.1 97.8807C562.29 97.5511 562.384 97.2045 562.384 96.8409V95.6136C562.327 95.6818 562.202 95.7443 562.009 95.8011C561.82 95.8542 561.6 95.9015 561.35 95.9432C561.104 95.9811 560.863 96.0152 560.629 96.0455C560.397 96.072 560.21 96.0947 560.066 96.1136C559.718 96.1591 559.392 96.233 559.089 96.3352C558.79 96.4337 558.547 96.5833 558.362 96.7841C558.18 96.9811 558.089 97.25 558.089 97.5909C558.089 98.0568 558.261 98.4091 558.606 98.6477C558.954 98.8826 559.396 99 559.93 99ZM565.627 100L569.173 95.5682L565.673 91.2727H567.263L570.173 95H570.9V91.2727H572.241V95H572.945L575.854 91.2727H577.445L573.968 95.5682L577.491 100H575.877L572.923 96.25H572.241V100H570.9V96.25H570.218L567.241 100H565.627ZM580.748 98.0227L584.952 91.2727H586.498V100H585.157V93.25L580.975 100H579.407V91.2727H580.748V98.0227ZM590.954 98.4091L590.863 99.0227C590.799 99.4545 590.7 99.9167 590.567 100.409C590.439 100.902 590.304 101.366 590.164 101.801C590.024 102.237 589.908 102.583 589.817 102.841H588.795C588.844 102.598 588.908 102.278 588.988 101.881C589.067 101.483 589.147 101.038 589.227 100.545C589.31 100.057 589.378 99.5568 589.431 99.0455L589.499 98.4091H590.954ZM601.484 100.182C600.665 100.182 599.961 99.9886 599.37 99.6023C598.779 99.2159 598.325 98.6837 598.006 98.0057C597.688 97.3277 597.529 96.553 597.529 95.6818C597.529 94.7955 597.692 94.0133 598.018 93.3352C598.347 92.6534 598.806 92.1212 599.393 91.7386C599.984 91.3523 600.673 91.1591 601.461 91.1591C602.075 91.1591 602.628 91.2727 603.12 91.5C603.612 91.7273 604.016 92.0455 604.33 92.4545C604.645 92.8636 604.84 93.3409 604.915 93.8864H603.575C603.472 93.4886 603.245 93.1364 602.893 92.8295C602.544 92.5189 602.075 92.3636 601.484 92.3636C600.961 92.3636 600.503 92.5 600.109 92.7727C599.719 93.0417 599.414 93.4223 599.194 93.9148C598.978 94.4034 598.87 94.9773 598.87 95.6364C598.87 96.3106 598.976 96.8977 599.188 97.3977C599.404 97.8977 599.707 98.286 600.097 98.5625C600.491 98.839 600.953 98.9773 601.484 98.9773C601.832 98.9773 602.148 98.9167 602.433 98.7955C602.717 98.6742 602.957 98.5 603.154 98.2727C603.351 98.0455 603.491 97.7727 603.575 97.4545H604.915C604.84 97.9697 604.652 98.4337 604.353 98.8466C604.058 99.2557 603.665 99.5814 603.177 99.8239C602.692 100.062 602.128 100.182 601.484 100.182ZM606.876 100V91.2727H610.444C611.383 91.2727 612.129 91.4848 612.683 91.9091C613.236 92.3333 613.512 92.8939 613.512 93.5909C613.512 94.1212 613.355 94.5322 613.04 94.8239C612.726 95.1117 612.323 95.3068 611.83 95.4091C612.152 95.4545 612.465 95.5682 612.768 95.75C613.075 95.9318 613.328 96.1818 613.529 96.5C613.73 96.8144 613.83 97.2008 613.83 97.6591C613.83 98.1061 613.717 98.5057 613.489 98.858C613.262 99.2102 612.936 99.4886 612.512 99.6932C612.088 99.8977 611.58 100 610.989 100H606.876ZM608.148 98.7727H610.989C611.451 98.7727 611.813 98.6629 612.075 98.4432C612.336 98.2235 612.467 97.9242 612.467 97.5455C612.467 97.0947 612.336 96.7405 612.075 96.483C611.813 96.2216 611.451 96.0909 610.989 96.0909H608.148V98.7727ZM608.148 94.9318H610.444C610.804 94.9318 611.112 94.8826 611.37 94.7841C611.628 94.6818 611.825 94.5379 611.961 94.3523C612.101 94.1629 612.171 93.9394 612.171 93.6818C612.171 93.3144 612.018 93.0265 611.711 92.8182C611.404 92.6061 610.982 92.5 610.444 92.5H608.148V94.9318ZM621.11 100V92.5H618.792C618.269 92.5 617.858 92.6212 617.559 92.8636C617.26 93.1061 617.11 93.4394 617.11 93.8636C617.11 94.2803 617.245 94.608 617.513 94.8466C617.786 95.0852 618.159 95.2045 618.633 95.2045H621.451V96.4545H618.633C618.042 96.4545 617.532 96.3504 617.104 96.142C616.676 95.9337 616.347 95.6364 616.116 95.25C615.885 94.8598 615.769 94.3977 615.769 93.8636C615.769 93.3258 615.89 92.8636 616.133 92.4773C616.375 92.0909 616.722 91.7936 617.173 91.5852C617.627 91.3769 618.167 91.2727 618.792 91.2727H622.383V100H621.11ZM615.292 100L617.769 95.6591H619.224L616.746 100H615.292ZM624.299 97.7727H625.731C625.761 98.1667 625.939 98.4659 626.265 98.6705C626.594 98.875 627.022 98.9773 627.549 98.9773C628.087 98.9773 628.547 98.8674 628.93 98.6477C629.312 98.4242 629.504 98.0644 629.504 97.5682C629.504 97.2765 629.432 97.0227 629.288 96.8068C629.144 96.5871 628.941 96.4167 628.68 96.2955C628.418 96.1742 628.11 96.1136 627.754 96.1136H626.254V94.9091H627.754C628.288 94.9091 628.682 94.7879 628.935 94.5455C629.193 94.303 629.322 94 629.322 93.6364C629.322 93.2462 629.183 92.9337 628.907 92.6989C628.63 92.4602 628.238 92.3409 627.731 92.3409C627.219 92.3409 626.793 92.4564 626.452 92.6875C626.112 92.9148 625.932 93.2083 625.913 93.5682H624.504C624.519 93.0985 624.663 92.6837 624.935 92.3239C625.208 91.9602 625.579 91.6761 626.049 91.4716C626.519 91.2633 627.057 91.1591 627.663 91.1591C628.276 91.1591 628.808 91.267 629.259 91.483C629.714 91.6951 630.064 91.9848 630.31 92.3523C630.56 92.7159 630.685 93.1288 630.685 93.5909C630.685 94.0833 630.547 94.4811 630.271 94.7841C629.994 95.0871 629.647 95.303 629.231 95.4318V95.5227C629.56 95.5455 629.846 95.6515 630.089 95.8409C630.335 96.0265 630.526 96.2708 630.663 96.5739C630.799 96.8731 630.867 97.2045 630.867 97.5682C630.867 98.0985 630.725 98.5606 630.441 98.9545C630.157 99.3447 629.767 99.6477 629.271 99.8636C628.774 100.076 628.208 100.182 627.572 100.182C626.954 100.182 626.401 100.081 625.913 99.8807C625.424 99.6761 625.036 99.3939 624.748 99.0341C624.464 98.6705 624.314 98.25 624.299 97.7727ZM633.91 94.4318H636.41C637.433 94.4318 638.215 94.6913 638.756 95.2102C639.298 95.7292 639.569 96.3864 639.569 97.1818C639.569 97.7045 639.448 98.1799 639.205 98.608C638.963 99.0322 638.607 99.3712 638.137 99.625C637.667 99.875 637.092 100 636.41 100H632.751V91.2727H634.092V98.75H636.41C636.94 98.75 637.376 98.6098 637.717 98.3295C638.058 98.0492 638.228 97.6894 638.228 97.25C638.228 96.7879 638.058 96.411 637.717 96.1193C637.376 95.8277 636.94 95.6818 636.41 95.6818H633.91V94.4318ZM640.955 100V91.2727H642.296V100H640.955ZM644.751 100V91.2727H648.319C649.258 91.2727 650.004 91.4848 650.558 91.9091C651.111 92.3333 651.387 92.8939 651.387 93.5909C651.387 94.1212 651.23 94.5322 650.915 94.8239C650.601 95.1117 650.198 95.3068 649.705 95.4091C650.027 95.4545 650.34 95.5682 650.643 95.75C650.95 95.9318 651.203 96.1818 651.404 96.5C651.605 96.8144 651.705 97.2008 651.705 97.6591C651.705 98.1061 651.592 98.5057 651.364 98.858C651.137 99.2102 650.811 99.4886 650.387 99.6932C649.963 99.8977 649.455 100 648.864 100H644.751ZM646.023 98.7727H648.864C649.326 98.7727 649.688 98.6629 649.95 98.4432C650.211 98.2235 650.342 97.9242 650.342 97.5455C650.342 97.0947 650.211 96.7405 649.95 96.483C649.688 96.2216 649.326 96.0909 648.864 96.0909H646.023V98.7727ZM646.023 94.9318H648.319C648.679 94.9318 648.987 94.8826 649.245 94.7841C649.503 94.6818 649.7 94.5379 649.836 94.3523C649.976 94.1629 650.046 93.9394 650.046 93.6818C650.046 93.3144 649.893 93.0265 649.586 92.8182C649.279 92.6061 648.857 92.5 648.319 92.5H646.023V94.9318ZM656.303 100.205C655.75 100.205 655.248 100.1 654.798 99.892C654.347 99.6799 653.989 99.375 653.724 98.9773C653.459 98.5758 653.326 98.0909 653.326 97.5227C653.326 97.0227 653.424 96.6174 653.621 96.3068C653.818 95.9924 654.082 95.7462 654.411 95.5682C654.741 95.3902 655.104 95.2576 655.502 95.1705C655.904 95.0795 656.307 95.0076 656.712 94.9545C657.243 94.8864 657.673 94.8352 658.002 94.8011C658.335 94.7633 658.578 94.7008 658.729 94.6136C658.885 94.5265 658.962 94.375 658.962 94.1591V94.1136C658.962 93.553 658.809 93.1174 658.502 92.8068C658.199 92.4962 657.739 92.3409 657.121 92.3409C656.481 92.3409 655.979 92.4811 655.616 92.7614C655.252 93.0417 654.996 93.3409 654.849 93.6591L653.576 93.2045C653.803 92.6742 654.106 92.2614 654.485 91.9659C654.868 91.6667 655.284 91.4583 655.735 91.3409C656.19 91.2197 656.637 91.1591 657.076 91.1591C657.356 91.1591 657.678 91.1932 658.042 91.2614C658.409 91.3258 658.763 91.4602 659.104 91.6648C659.449 91.8693 659.735 92.178 659.962 92.5909C660.19 93.0038 660.303 93.5568 660.303 94.25V100H658.962V98.8182H658.894C658.803 99.0076 658.652 99.2102 658.44 99.4261C658.228 99.642 657.945 99.8258 657.593 99.9773C657.241 100.129 656.811 100.205 656.303 100.205ZM656.508 99C657.038 99 657.485 98.8958 657.849 98.6875C658.216 98.4792 658.493 98.2102 658.678 97.8807C658.868 97.5511 658.962 97.2045 658.962 96.8409V95.6136C658.906 95.6818 658.781 95.7443 658.587 95.8011C658.398 95.8542 658.178 95.9015 657.928 95.9432C657.682 95.9811 657.442 96.0152 657.207 96.0455C656.976 96.072 656.788 96.0947 656.644 96.1136C656.296 96.1591 655.97 96.233 655.667 96.3352C655.368 96.4337 655.125 96.5833 654.94 96.7841C654.758 96.9811 654.667 97.25 654.667 97.5909C654.667 98.0568 654.839 98.4091 655.184 98.6477C655.532 98.8826 655.974 99 656.508 99ZM668.001 100V92.5H665.683C665.16 92.5 664.749 92.6212 664.45 92.8636C664.15 93.1061 664.001 93.4394 664.001 93.8636C664.001 94.2803 664.135 94.608 664.404 94.8466C664.677 95.0852 665.05 95.2045 665.523 95.2045H668.342V96.4545H665.523C664.933 96.4545 664.423 96.3504 663.995 96.142C663.567 95.9337 663.237 95.6364 663.006 95.25C662.775 94.8598 662.66 94.3977 662.66 93.8636C662.66 93.3258 662.781 92.8636 663.023 92.4773C663.266 92.0909 663.612 91.7936 664.063 91.5852C664.518 91.3769 665.058 91.2727 665.683 91.2727H669.273V100H668.001ZM662.183 100L664.66 95.6591H666.114L663.637 100H662.183ZM676.235 100V91.2727H683.099V100H681.758V92.5227H677.576V100H676.235ZM685.548 103.273V91.2727H686.843V92.6591H687.002C687.101 92.5076 687.237 92.3144 687.411 92.0795C687.589 91.8409 687.843 91.6288 688.173 91.4432C688.506 91.2538 688.957 91.1591 689.525 91.1591C690.26 91.1591 690.907 91.3428 691.468 91.7102C692.029 92.0777 692.466 92.5985 692.781 93.2727C693.095 93.947 693.252 94.7424 693.252 95.6591C693.252 96.5833 693.095 97.3845 692.781 98.0625C692.466 98.7367 692.031 99.2595 691.474 99.6307C690.917 99.9981 690.275 100.182 689.548 100.182C688.987 100.182 688.538 100.089 688.201 99.9034C687.864 99.714 687.604 99.5 687.423 99.2614C687.241 99.0189 687.101 98.8182 687.002 98.6591H686.888V103.273H685.548ZM686.866 95.6364C686.866 96.2955 686.962 96.8769 687.156 97.3807C687.349 97.8807 687.631 98.2727 688.002 98.5568C688.373 98.8371 688.828 98.9773 689.366 98.9773C689.926 98.9773 690.394 98.8295 690.769 98.5341C691.148 98.2348 691.432 97.8333 691.621 97.3295C691.815 96.822 691.911 96.2576 691.911 95.6364C691.911 95.0227 691.817 94.4697 691.627 93.9773C691.442 93.4811 691.159 93.089 690.781 92.8011C690.406 92.5095 689.934 92.3636 689.366 92.3636C688.82 92.3636 688.362 92.5019 687.991 92.7784C687.62 93.0511 687.339 93.4337 687.15 93.9261C686.96 94.4148 686.866 94.9848 686.866 95.6364ZM698.843 100.182C698.055 100.182 697.364 99.9943 696.769 99.6193C696.178 99.2443 695.716 98.7197 695.383 98.0455C695.053 97.3712 694.888 96.5833 694.888 95.6818C694.888 94.7727 695.053 93.9792 695.383 93.3011C695.716 92.6231 696.178 92.0966 696.769 91.7216C697.364 91.3466 698.055 91.1591 698.843 91.1591C699.631 91.1591 700.32 91.3466 700.911 91.7216C701.506 92.0966 701.968 92.6231 702.298 93.3011C702.631 93.9792 702.798 94.7727 702.798 95.6818C702.798 96.5833 702.631 97.3712 702.298 98.0455C701.968 98.7197 701.506 99.2443 700.911 99.6193C700.32 99.9943 699.631 100.182 698.843 100.182ZM698.843 98.9773C699.442 98.9773 699.934 98.8239 700.32 98.517C700.707 98.2102 700.993 97.8068 701.178 97.3068C701.364 96.8068 701.457 96.2652 701.457 95.6818C701.457 95.0985 701.364 94.5549 701.178 94.0511C700.993 93.5473 700.707 93.1402 700.32 92.8295C699.934 92.5189 699.442 92.3636 698.843 92.3636C698.245 92.3636 697.752 92.5189 697.366 92.8295C696.979 93.1402 696.693 93.5473 696.508 94.0511C696.322 94.5549 696.229 95.0985 696.229 95.6818C696.229 96.2652 696.322 96.8068 696.508 97.3068C696.693 97.8068 696.979 98.2102 697.366 98.517C697.752 98.8239 698.245 98.9773 698.843 98.9773ZM703.913 102.5V98.75H704.64C704.818 98.5644 704.971 98.3636 705.1 98.1477C705.229 97.9318 705.341 97.6761 705.435 97.3807C705.534 97.0814 705.617 96.7178 705.685 96.2898C705.754 95.858 705.814 95.3371 705.867 94.7273L706.163 91.2727H711.708V98.75H713.049V102.5H711.708V100H705.254V102.5H703.913ZM706.163 98.75H710.367V92.5227H707.413L707.185 94.7273C707.091 95.6402 706.973 96.4375 706.833 97.1193C706.693 97.8011 706.469 98.3447 706.163 98.75ZM717.397 100.205C716.844 100.205 716.342 100.1 715.891 99.892C715.441 99.6799 715.083 99.375 714.817 98.9773C714.552 98.5758 714.42 98.0909 714.42 97.5227C714.42 97.0227 714.518 96.6174 714.715 96.3068C714.912 95.9924 715.175 95.7462 715.505 95.5682C715.835 95.3902 716.198 95.2576 716.596 95.1705C716.997 95.0795 717.401 95.0076 717.806 94.9545C718.336 94.8864 718.766 94.8352 719.096 94.8011C719.429 94.7633 719.672 94.7008 719.823 94.6136C719.978 94.5265 720.056 94.375 720.056 94.1591V94.1136C720.056 93.553 719.903 93.1174 719.596 92.8068C719.293 92.4962 718.833 92.3409 718.215 92.3409C717.575 92.3409 717.073 92.4811 716.71 92.7614C716.346 93.0417 716.09 93.3409 715.942 93.6591L714.67 93.2045C714.897 92.6742 715.2 92.2614 715.579 91.9659C715.961 91.6667 716.378 91.4583 716.829 91.3409C717.283 91.2197 717.73 91.1591 718.17 91.1591C718.45 91.1591 718.772 91.1932 719.136 91.2614C719.503 91.3258 719.857 91.4602 720.198 91.6648C720.543 91.8693 720.829 92.178 721.056 92.5909C721.283 93.0038 721.397 93.5568 721.397 94.25V100H720.056V98.8182H719.988C719.897 99.0076 719.746 99.2102 719.533 99.4261C719.321 99.642 719.039 99.8258 718.687 99.9773C718.335 100.129 717.905 100.205 717.397 100.205ZM717.602 99C718.132 99 718.579 98.8958 718.942 98.6875C719.31 98.4792 719.586 98.2102 719.772 97.8807C719.961 97.5511 720.056 97.2045 720.056 96.8409V95.6136C719.999 95.6818 719.874 95.7443 719.681 95.8011C719.492 95.8542 719.272 95.9015 719.022 95.9432C718.776 95.9811 718.535 96.0152 718.3 96.0455C718.069 96.072 717.882 96.0947 717.738 96.1136C717.389 96.1591 717.064 96.233 716.761 96.3352C716.461 96.4337 716.219 96.5833 716.033 96.7841C715.852 96.9811 715.761 97.25 715.761 97.5909C715.761 98.0568 715.933 98.4091 716.278 98.6477C716.626 98.8826 717.067 99 717.602 99ZM723.844 100V91.2727H727.413C728.352 91.2727 729.098 91.4848 729.651 91.9091C730.204 92.3333 730.481 92.8939 730.481 93.5909C730.481 94.1212 730.324 94.5322 730.009 94.8239C729.695 95.1117 729.291 95.3068 728.799 95.4091C729.121 95.4545 729.433 95.5682 729.737 95.75C730.043 95.9318 730.297 96.1818 730.498 96.5C730.699 96.8144 730.799 97.2008 730.799 97.6591C730.799 98.1061 730.685 98.5057 730.458 98.858C730.231 99.2102 729.905 99.4886 729.481 99.6932C729.057 99.8977 728.549 100 727.958 100H723.844ZM725.117 98.7727H727.958C728.42 98.7727 728.782 98.6629 729.043 98.4432C729.305 98.2235 729.435 97.9242 729.435 97.5455C729.435 97.0947 729.305 96.7405 729.043 96.483C728.782 96.2216 728.42 96.0909 727.958 96.0909H725.117V98.7727ZM725.117 94.9318H727.413C727.772 94.9318 728.081 94.8826 728.339 94.7841C728.596 94.6818 728.793 94.5379 728.93 94.3523C729.07 94.1629 729.14 93.9394 729.14 93.6818C729.14 93.3144 728.987 93.0265 728.68 92.8182C728.373 92.6061 727.951 92.5 727.413 92.5H725.117V94.9318ZM739.692 91.2727V98.75H740.92V102.818H739.579V100H732.829V91.2727H734.17V98.75H738.352V91.2727H739.692ZM746.437 100.182C745.649 100.182 744.958 99.9943 744.363 99.6193C743.772 99.2443 743.31 98.7197 742.977 98.0455C742.647 97.3712 742.482 96.5833 742.482 95.6818C742.482 94.7727 742.647 93.9792 742.977 93.3011C743.31 92.6231 743.772 92.0966 744.363 91.7216C744.958 91.3466 745.649 91.1591 746.437 91.1591C747.225 91.1591 747.914 91.3466 748.505 91.7216C749.1 92.0966 749.562 92.6231 749.891 93.3011C750.225 93.9792 750.391 94.7727 750.391 95.6818C750.391 96.5833 750.225 97.3712 749.891 98.0455C749.562 98.7197 749.1 99.2443 748.505 99.6193C747.914 99.9943 747.225 100.182 746.437 100.182ZM746.437 98.9773C747.035 98.9773 747.528 98.8239 747.914 98.517C748.3 98.2102 748.586 97.8068 748.772 97.3068C748.958 96.8068 749.05 96.2652 749.05 95.6818C749.05 95.0985 748.958 94.5549 748.772 94.0511C748.586 93.5473 748.3 93.1402 747.914 92.8295C747.528 92.5189 747.035 92.3636 746.437 92.3636C745.838 92.3636 745.346 92.5189 744.96 92.8295C744.573 93.1402 744.287 93.5473 744.102 94.0511C743.916 94.5549 743.823 95.0985 743.823 95.6818C743.823 96.2652 743.916 96.8068 744.102 97.3068C744.287 97.8068 744.573 98.2102 744.96 98.517C745.346 98.8239 745.838 98.9773 746.437 98.9773ZM752.438 100V91.2727H756.006C756.946 91.2727 757.692 91.4848 758.245 91.9091C758.798 92.3333 759.075 92.8939 759.075 93.5909C759.075 94.1212 758.917 94.5322 758.603 94.8239C758.289 95.1117 757.885 95.3068 757.393 95.4091C757.715 95.4545 758.027 95.5682 758.33 95.75C758.637 95.9318 758.891 96.1818 759.092 96.5C759.292 96.8144 759.393 97.2008 759.393 97.6591C759.393 98.1061 759.279 98.5057 759.052 98.858C758.825 99.2102 758.499 99.4886 758.075 99.6932C757.65 99.8977 757.143 100 756.552 100H752.438ZM753.711 98.7727H756.552C757.014 98.7727 757.376 98.6629 757.637 98.4432C757.898 98.2235 758.029 97.9242 758.029 97.5455C758.029 97.0947 757.898 96.7405 757.637 96.483C757.376 96.2216 757.014 96.0909 756.552 96.0909H753.711V98.7727ZM753.711 94.9318H756.006C756.366 94.9318 756.675 94.8826 756.933 94.7841C757.19 94.6818 757.387 94.5379 757.523 94.3523C757.664 94.1629 757.734 93.9394 757.734 93.6818C757.734 93.3144 757.58 93.0265 757.273 92.8182C756.967 92.6061 756.544 92.5 756.006 92.5H753.711V94.9318ZM769.468 100.182C768.65 100.182 767.945 99.9886 767.354 99.6023C766.763 99.2159 766.309 98.6837 765.991 98.0057C765.673 97.3277 765.513 96.553 765.513 95.6818C765.513 94.7955 765.676 94.0133 766.002 93.3352C766.332 92.6534 766.79 92.1212 767.377 91.7386C767.968 91.3523 768.657 91.1591 769.445 91.1591C770.059 91.1591 770.612 91.2727 771.104 91.5C771.597 91.7273 772 92.0455 772.315 92.4545C772.629 92.8636 772.824 93.3409 772.9 93.8864H771.559C771.457 93.4886 771.229 93.1364 770.877 92.8295C770.529 92.5189 770.059 92.3636 769.468 92.3636C768.945 92.3636 768.487 92.5 768.093 92.7727C767.703 93.0417 767.398 93.4223 767.178 93.9148C766.962 94.4034 766.854 94.9773 766.854 95.6364C766.854 96.3106 766.96 96.8977 767.173 97.3977C767.388 97.8977 767.692 98.286 768.082 98.5625C768.476 98.839 768.938 98.9773 769.468 98.9773C769.817 98.9773 770.133 98.9167 770.417 98.7955C770.701 98.6742 770.942 98.5 771.138 98.2727C771.335 98.0455 771.476 97.7727 771.559 97.4545H772.9C772.824 97.9697 772.637 98.4337 772.337 98.8466C772.042 99.2557 771.65 99.5814 771.161 99.8239C770.676 100.062 770.112 100.182 769.468 100.182ZM779.36 100V91.2727H786.224V100H784.883V92.5227H780.701V100H779.36ZM792.218 100.182C791.43 100.182 790.739 99.9943 790.144 99.6193C789.553 99.2443 789.091 98.7197 788.758 98.0455C788.428 97.3712 788.263 96.5833 788.263 95.6818C788.263 94.7727 788.428 93.9792 788.758 93.3011C789.091 92.6231 789.553 92.0966 790.144 91.7216C790.739 91.3466 791.43 91.1591 792.218 91.1591C793.006 91.1591 793.695 91.3466 794.286 91.7216C794.881 92.0966 795.343 92.6231 795.673 93.3011C796.006 93.9792 796.173 94.7727 796.173 95.6818C796.173 96.5833 796.006 97.3712 795.673 98.0455C795.343 98.7197 794.881 99.2443 794.286 99.6193C793.695 99.9943 793.006 100.182 792.218 100.182ZM792.218 98.9773C792.817 98.9773 793.309 98.8239 793.695 98.517C794.082 98.2102 794.368 97.8068 794.553 97.3068C794.739 96.8068 794.832 96.2652 794.832 95.6818C794.832 95.0985 794.739 94.5549 794.553 94.0511C794.368 93.5473 794.082 93.1402 793.695 92.8295C793.309 92.5189 792.817 92.3636 792.218 92.3636C791.62 92.3636 791.127 92.5189 790.741 92.8295C790.354 93.1402 790.068 93.5473 789.883 94.0511C789.697 94.5549 789.604 95.0985 789.604 95.6818C789.604 96.2652 789.697 96.8068 789.883 97.3068C790.068 97.8068 790.354 98.2102 790.741 98.517C791.127 98.8239 791.62 98.9773 792.218 98.9773ZM797.079 92.5227V91.2727H804.17V92.5227H801.306V100H799.965V92.5227H797.079ZM809.332 100.182C808.491 100.182 807.765 99.9962 807.156 99.625C806.549 99.25 806.082 98.7273 805.752 98.0568C805.426 97.3826 805.263 96.5985 805.263 95.7045C805.263 94.8106 805.426 94.0227 805.752 93.3409C806.082 92.6553 806.54 92.1212 807.127 91.7386C807.718 91.3523 808.407 91.1591 809.195 91.1591C809.65 91.1591 810.099 91.2348 810.542 91.3864C810.985 91.5379 811.388 91.7841 811.752 92.125C812.116 92.4621 812.406 92.9091 812.621 93.4659C812.837 94.0227 812.945 94.7083 812.945 95.5227V96.0909H806.218V94.9318H811.582C811.582 94.4394 811.483 94 811.286 93.6136C811.093 93.2273 810.817 92.9223 810.457 92.6989C810.101 92.4754 809.68 92.3636 809.195 92.3636C808.661 92.3636 808.199 92.4962 807.809 92.7614C807.423 93.0227 807.125 93.3636 806.917 93.7841C806.709 94.2045 806.604 94.6553 806.604 95.1364V95.9091C806.604 96.5682 806.718 97.1269 806.945 97.5852C807.176 98.0398 807.496 98.3864 807.906 98.625C808.315 98.8598 808.79 98.9773 809.332 98.9773C809.684 98.9773 810.002 98.928 810.286 98.8295C810.574 98.7273 810.822 98.5758 811.031 98.375C811.239 98.1705 811.4 97.9167 811.513 97.6136L812.809 97.9773C812.673 98.4167 812.443 98.803 812.121 99.1364C811.799 99.4659 811.402 99.7235 810.928 99.9091C810.455 100.091 809.923 100.182 809.332 100.182ZM820.826 95.0227V96.2727H816.008V95.0227H820.826ZM816.326 91.2727V100H814.985V91.2727H816.326ZM821.849 91.2727V100H820.508V91.2727H821.849ZM831.161 91.2727V98.75H832.388V102.818H831.048V100H824.298V91.2727H825.638V98.75H829.82V91.2727H831.161ZM835.795 98.0227L839.999 91.2727H841.545V100H840.204V93.25L836.022 100H834.454V91.2727H835.795V98.0227ZM846.569 100.205C846.016 100.205 845.514 100.1 845.063 99.892C844.612 99.6799 844.254 99.375 843.989 98.9773C843.724 98.5758 843.592 98.0909 843.592 97.5227C843.592 97.0227 843.69 96.6174 843.887 96.3068C844.084 95.9924 844.347 95.7462 844.677 95.5682C845.006 95.3902 845.37 95.2576 845.768 95.1705C846.169 95.0795 846.573 95.0076 846.978 94.9545C847.508 94.8864 847.938 94.8352 848.268 94.8011C848.601 94.7633 848.844 94.7008 848.995 94.6136C849.15 94.5265 849.228 94.375 849.228 94.1591V94.1136C849.228 93.553 849.075 93.1174 848.768 92.8068C848.465 92.4962 848.004 92.3409 847.387 92.3409C846.747 92.3409 846.245 92.4811 845.881 92.7614C845.518 93.0417 845.262 93.3409 845.114 93.6591L843.842 93.2045C844.069 92.6742 844.372 92.2614 844.751 91.9659C845.133 91.6667 845.55 91.4583 846.001 91.3409C846.455 91.2197 846.902 91.1591 847.342 91.1591C847.622 91.1591 847.944 91.1932 848.308 91.2614C848.675 91.3258 849.029 91.4602 849.37 91.6648C849.715 91.8693 850.001 92.178 850.228 92.5909C850.455 93.0038 850.569 93.5568 850.569 94.25V100H849.228V98.8182H849.16C849.069 99.0076 848.917 99.2102 848.705 99.4261C848.493 99.642 848.211 99.8258 847.859 99.9773C847.506 100.129 847.076 100.205 846.569 100.205ZM846.773 99C847.304 99 847.751 98.8958 848.114 98.6875C848.482 98.4792 848.758 98.2102 848.944 97.8807C849.133 97.5511 849.228 97.2045 849.228 96.8409V95.6136C849.171 95.6818 849.046 95.7443 848.853 95.8011C848.664 95.8542 848.444 95.9015 848.194 95.9432C847.948 95.9811 847.707 96.0152 847.472 96.0455C847.241 96.072 847.054 96.0947 846.91 96.1136C846.561 96.1591 846.236 96.233 845.933 96.3352C845.633 96.4337 845.391 96.5833 845.205 96.7841C845.023 96.9811 844.933 97.25 844.933 97.5909C844.933 98.0568 845.105 98.4091 845.45 98.6477C845.798 98.8826 846.239 99 846.773 99ZM852.244 100V98.75H852.562C852.823 98.75 853.041 98.6989 853.215 98.5966C853.389 98.4905 853.53 98.3068 853.636 98.0455C853.746 97.7803 853.829 97.4129 853.886 96.9432C853.946 96.4697 853.99 95.8674 854.016 95.1364L854.175 91.2727H859.994V100H858.653V92.5227H855.448L855.312 95.6364C855.281 96.3523 855.217 96.983 855.119 97.5284C855.024 98.0701 854.878 98.5246 854.681 98.892C854.488 99.2595 854.23 99.536 853.908 99.7216C853.586 99.9072 853.183 100 852.698 100H852.244ZM863.613 94.4318H866.113C867.136 94.4318 867.918 94.6913 868.46 95.2102C869.001 95.7292 869.272 96.3864 869.272 97.1818C869.272 97.7045 869.151 98.1799 868.908 98.608C868.666 99.0322 868.31 99.3712 867.84 99.625C867.371 99.875 866.795 100 866.113 100H862.454V91.2727H863.795V98.75H866.113C866.643 98.75 867.079 98.6098 867.42 98.3295C867.761 98.0492 867.931 97.6894 867.931 97.25C867.931 96.7879 867.761 96.411 867.42 96.1193C867.079 95.8277 866.643 95.6818 866.113 95.6818H863.613V94.4318ZM877.154 95.0227V96.2727H872.336V95.0227H877.154ZM872.654 91.2727V100H871.313V91.2727H872.654ZM878.177 91.2727V100H876.836V91.2727H878.177ZM881.785 94.4318H884.285C885.308 94.4318 886.09 94.6913 886.631 95.2102C887.173 95.7292 887.444 96.3864 887.444 97.1818C887.444 97.7045 887.323 98.1799 887.08 98.608C886.838 99.0322 886.482 99.3712 886.012 99.625C885.542 99.875 884.967 100 884.285 100H880.626V91.2727H881.967V98.75H884.285C884.815 98.75 885.251 98.6098 885.592 98.3295C885.933 98.0492 886.103 97.6894 886.103 97.25C886.103 96.7879 885.933 96.411 885.592 96.1193C885.251 95.8277 884.815 95.6818 884.285 95.6818H881.785V94.4318ZM888.83 100V91.2727H890.171V100H888.83ZM897.398 98.1818L900.444 91.2727H901.717L897.944 100H896.853L893.148 91.2727H894.398L897.398 98.1818ZM893.967 91.2727V100H892.626V91.2727H893.967ZM900.83 100V91.2727H902.171V100H900.83ZM905.967 98.0227L910.171 91.2727H911.717V100H910.376V93.25L906.194 100H904.626V91.2727H905.967V98.0227ZM918.673 100V91.2727H920.013V95.0682H920.9L924.036 91.2727H925.763L922.241 95.4773L925.809 100H924.082L921.218 96.3182H920.013V100H918.673ZM926.494 100V98.75H926.812C927.073 98.75 927.291 98.6989 927.465 98.5966C927.639 98.4905 927.78 98.3068 927.886 98.0455C927.996 97.7803 928.079 97.4129 928.136 96.9432C928.196 96.4697 928.24 95.8674 928.266 95.1364L928.425 91.2727H934.244V100H932.903V92.5227H929.698L929.562 95.6364C929.531 96.3523 929.467 96.983 929.369 97.5284C929.274 98.0701 929.128 98.5246 928.931 98.892C928.738 99.2595 928.48 99.536 928.158 99.7216C927.836 99.9072 927.433 100 926.948 100H926.494ZM938.045 98.0227L942.249 91.2727H943.795V100H942.454V93.25L938.272 100H936.704V91.2727H938.045V98.0227ZM949.91 100.182C949.069 100.182 948.344 99.9962 947.734 99.625C947.128 99.25 946.66 98.7273 946.33 98.0568C946.004 97.3826 945.842 96.5985 945.842 95.7045C945.842 94.8106 946.004 94.0227 946.33 93.3409C946.66 92.6553 947.118 92.1212 947.705 91.7386C948.296 91.3523 948.986 91.1591 949.773 91.1591C950.228 91.1591 950.677 91.2348 951.12 91.3864C951.563 91.5379 951.967 91.7841 952.33 92.125C952.694 92.4621 952.984 92.9091 953.2 93.4659C953.415 94.0227 953.523 94.7083 953.523 95.5227V96.0909H946.796V94.9318H952.16C952.16 94.4394 952.061 94 951.864 93.6136C951.671 93.2273 951.395 92.9223 951.035 92.6989C950.679 92.4754 950.258 92.3636 949.773 92.3636C949.239 92.3636 948.777 92.4962 948.387 92.7614C948.001 93.0227 947.703 93.3636 947.495 93.7841C947.287 94.2045 947.183 94.6553 947.183 95.1364V95.9091C947.183 96.5682 947.296 97.1269 947.523 97.5852C947.754 98.0398 948.075 98.3864 948.484 98.625C948.893 98.8598 949.368 98.9773 949.91 98.9773C950.262 98.9773 950.58 98.928 950.864 98.8295C951.152 98.7273 951.4 98.5758 951.609 98.375C951.817 98.1705 951.978 97.9167 952.092 97.6136L953.387 97.9773C953.251 98.4167 953.022 98.803 952.7 99.1364C952.378 99.4659 951.98 99.7235 951.506 99.9091C951.033 100.091 950.501 100.182 949.91 100.182ZM961.404 95.0227V96.2727H956.586V95.0227H961.404ZM956.904 91.2727V100H955.563V91.2727H956.904ZM962.427 91.2727V100H961.086V91.2727H962.427ZM963.688 92.5227V91.2727H970.779V92.5227H967.915V100H966.575V92.5227H963.688ZM974.85 100.205C974.297 100.205 973.795 100.1 973.344 99.892C972.894 99.6799 972.536 99.375 972.271 98.9773C972.005 98.5758 971.873 98.0909 971.873 97.5227C971.873 97.0227 971.971 96.6174 972.168 96.3068C972.365 95.9924 972.629 95.7462 972.958 95.5682C973.288 95.3902 973.651 95.2576 974.049 95.1705C974.451 95.0795 974.854 95.0076 975.259 94.9545C975.79 94.8864 976.219 94.8352 976.549 94.8011C976.882 94.7633 977.125 94.7008 977.276 94.6136C977.432 94.5265 977.509 94.375 977.509 94.1591V94.1136C977.509 93.553 977.356 93.1174 977.049 92.8068C976.746 92.4962 976.286 92.3409 975.668 92.3409C975.028 92.3409 974.526 92.4811 974.163 92.7614C973.799 93.0417 973.543 93.3409 973.396 93.6591L972.123 93.2045C972.35 92.6742 972.653 92.2614 973.032 91.9659C973.415 91.6667 973.831 91.4583 974.282 91.3409C974.737 91.2197 975.183 91.1591 975.623 91.1591C975.903 91.1591 976.225 91.1932 976.589 91.2614C976.956 91.3258 977.31 91.4602 977.651 91.6648C977.996 91.8693 978.282 92.178 978.509 92.5909C978.737 93.0038 978.85 93.5568 978.85 94.25V100H977.509V98.8182H977.441C977.35 99.0076 977.199 99.2102 976.987 99.4261C976.774 99.642 976.492 99.8258 976.14 99.9773C975.788 100.129 975.358 100.205 974.85 100.205ZM975.055 99C975.585 99 976.032 98.8958 976.396 98.6875C976.763 98.4792 977.04 98.2102 977.225 97.8807C977.415 97.5511 977.509 97.2045 977.509 96.8409V95.6136C977.452 95.6818 977.327 95.7443 977.134 95.8011C976.945 95.8542 976.725 95.9015 976.475 95.9432C976.229 95.9811 975.988 96.0152 975.754 96.0455C975.522 96.072 975.335 96.0947 975.191 96.1136C974.843 96.1591 974.517 96.233 974.214 96.3352C973.915 96.4337 973.672 96.5833 973.487 96.7841C973.305 96.9811 973.214 97.25 973.214 97.5909C973.214 98.0568 973.386 98.4091 973.731 98.6477C974.079 98.8826 974.521 99 975.055 99ZM986.07 98.1818L989.116 91.2727H990.388L986.616 100H985.525L981.82 91.2727H983.07L986.07 98.1818ZM982.638 91.2727V100H981.298V91.2727H982.638ZM989.502 100V91.2727H990.843V100H989.502ZM994.638 98.0227L998.843 91.2727H1000.39V100H999.048V93.25L994.866 100H993.298V91.2727H994.638V98.0227ZM1003.82 100.091C1003.54 100.091 1003.3 99.9905 1003.1 99.7898C1002.9 99.589 1002.8 99.3485 1002.8 99.0682C1002.8 98.7879 1002.9 98.5473 1003.1 98.3466C1003.3 98.1458 1003.54 98.0455 1003.82 98.0455C1004.1 98.0455 1004.34 98.1458 1004.54 98.3466C1004.74 98.5473 1004.84 98.7879 1004.84 99.0682C1004.84 99.2538 1004.8 99.4242 1004.7 99.5795C1004.61 99.7348 1004.49 99.8598 1004.33 99.9545C1004.18 100.045 1004.01 100.091 1003.82 100.091Z" fill="black"/>
</g>
<defs>
<clipPath id="clip0_569_1499">
<rect width="1440" height="203" fill="white"/>
</clipPath>
</defs>
</svg>
