<svg width="103" height="20" viewBox="0 0 103 20" fill="none" xmlns="http://www.w3.org/2000/svg">
<path d="M13.2991 4.78973C8.22405 3.5705 4.67737 6.46782 2.49581 3.20998C2.48928 3.19686 2.48275 3.1903 2.47621 3.1772C2.41743 3.08543 2.49581 2.95433 2.60031 2.98054C7.09408 4.05558 7.82563 3.38696 9.71327 3.61638C11.4572 3.82614 13.2991 4.78973 13.2991 4.78973Z" fill="#16191D"/>
<path d="M14.1941 5.60904C9.7264 4.94699 6.55855 8.29659 4.16797 5.72048C4.16144 5.71393 4.15491 5.70082 4.14185 5.69427C4.07653 5.62216 4.12225 5.49106 4.22022 5.49762C8.30251 5.79914 9.26265 5.07809 10.9414 5.00599C12.5089 4.94044 14.1941 5.60904 14.1941 5.60904Z" fill="#16191D"/>
<path d="M15.0234 6.66446C11.124 6.13351 9.45197 9.64699 6.29066 7.49695C6.28413 7.4904 6.27759 7.48384 6.26453 7.47074C6.19922 7.41174 6.21881 7.24132 6.31025 7.24132C9.76549 7.24787 10.6668 6.44159 12.1235 6.26462C14.0961 6.02862 15.0234 6.66446 15.0234 6.66446Z" fill="#16191D"/>
<path d="M16.7806 7.82469C14.7427 8.041 15.0628 9.67975 12.829 9.31268C12.5351 9.26678 12.6004 9.05702 12.7311 9.0177C14.6057 8.48019 14.6057 8.11966 15.2784 7.8509C15.9185 7.60838 16.7806 7.82469 16.7806 7.82469Z" fill="#16191D"/>
<path d="M15.8595 7.32001C12.9203 7.379 12.1692 9.49627 9.69366 8.80799C9.31482 8.7031 9.44546 8.41468 9.64794 8.38847C12.4827 7.93618 12.6198 7.51666 13.6714 7.26756C14.6576 7.03159 15.8595 7.32001 15.8595 7.32001Z" fill="#16191D"/>
<path d="M14.1808 4.78323C14.1612 4.816 14.1155 4.82255 14.0829 4.80944C13.4754 4.46203 12.9073 4.05561 12.2541 3.60988C11.6401 3.19691 10.3207 2.63318 7.5774 2.76428C6.27107 2.82983 4.28546 3.09859 2.23452 1.68926C1.73811 1.35495 1.23517 0.784665 0.973906 0.253718C0.947781 0.207826 0.934719 0.148828 0.928187 0.08983C0.921656 0.0308319 0.986968 -0.0150415 1.04577 0.00461854C6.12085 2.04978 7.57087 1.25008 10.7648 1.99079C12.0776 2.29888 13.704 4.21295 14.1744 4.69145C14.2005 4.71113 14.2005 4.75045 14.1808 4.78323Z" fill="#16191D"/>
<path d="M18.5962 15.9923C18.5373 16.1757 18.5503 16.3921 18.4329 16.5494C18.2891 16.7592 17.9365 16.7789 17.7666 16.5887C17.6556 16.4905 17.6556 16.3332 17.6163 16.2085C17.3617 15.0877 17.1135 13.9666 16.8652 12.8392C16.8392 12.7606 16.8652 12.7081 16.9436 12.6754C17.0678 12.6426 17.0808 12.7802 17.1199 12.859C17.4008 13.6259 17.662 14.3993 17.9495 15.1662C18.0409 15.4285 18.348 15.3432 18.5503 15.4089C18.7659 15.5464 18.6353 15.8021 18.5962 15.9923Z" fill="#16191D"/>
<path d="M18.9293 12.8983C18.9555 12.9704 18.9163 13.0556 18.8379 13.0686C18.7923 13.0752 18.753 13.0686 18.74 13.0031C18.5505 12.6229 18.3872 12.2231 18.1912 11.8429C17.9366 11.6265 17.6687 11.4037 17.5121 11.0956C17.2312 10.5974 17.2572 9.94849 17.5708 9.46997C17.5968 9.43718 17.6165 9.39786 17.6427 9.36508C17.6884 9.29954 17.7863 9.31265 17.8124 9.39131C17.832 9.45031 17.845 9.50929 17.8713 9.56173C18.2239 10.6695 18.5637 11.7904 18.9293 12.8983Z" fill="#16191D"/>
<path d="M18.9816 7.62149C18.9686 7.91646 18.8576 8.19177 18.7857 8.47364C18.7791 8.4933 18.7726 8.50641 18.753 8.51296C18.7073 8.53264 18.6616 8.49985 18.6616 8.45398C18.6681 8.06722 18.8053 7.68704 18.7073 7.30684C18.5637 6.789 18.2109 6.33671 18.1848 5.78608C18.1716 5.49766 18.2435 5.2158 18.3024 4.93393C18.0933 4.49475 17.9953 3.99 18.1063 3.5115C18.1259 3.4525 18.1325 3.4525 18.1652 3.49837C18.3677 3.79336 18.6354 4.08834 18.6354 4.47507C18.6093 5.0257 18.3088 5.57632 18.5114 6.12695C18.6747 6.61857 19.0273 7.07742 18.9816 7.62149Z" fill="#16191D"/>
<path d="M20.7059 5.72059C20.6929 6.44164 20.0658 7.01848 20.1377 7.75265C20.1377 8.03452 20.2095 8.32294 20.1768 8.6048C20.1311 8.85388 19.8503 8.89322 19.6479 8.95222C19.5303 9.00466 19.3997 8.86701 19.4323 8.74901C19.4323 7.89686 19.4323 7.03816 19.4323 6.18601C19.4454 5.83204 19.5303 5.45839 19.7719 5.18965C19.9222 5.01265 20.0789 4.83568 20.2421 4.65868C20.2748 4.61934 20.2944 4.57347 20.288 4.52758C20.2748 4.37026 20.2421 4.23261 20.314 4.04906C20.425 3.81964 20.5689 3.68198 20.7189 3.53122C20.7452 3.505 20.7843 3.51811 20.7909 3.55088C20.8954 4.01629 20.7909 4.52102 20.5753 4.94055C20.6276 5.18965 20.7059 5.45183 20.7059 5.72059Z" fill="#16191D"/>
<path d="M28.9556 3.08527C28.0673 3.33435 27.6558 3.63587 27.3031 3.91774C27.3031 3.91774 28.1065 3.63587 29.2625 3.51134C32.5415 3.15082 32.7308 4.3766 36.4017 2.95416C36.5257 2.9345 36.5584 3.03282 36.5257 3.08527C36.0359 3.93742 35.4937 4.88133 33.4428 4.96655C31.209 5.05833 30.0464 4.16029 27.9497 4.42904C26.6108 4.59947 25.9184 5.01899 25.5329 5.27464C30.1051 4.39626 29.7263 6.41521 34.2069 5.34019C34.2592 5.32707 34.3181 5.31396 34.3704 5.32052C34.4878 5.33362 34.5337 5.47785 34.4618 5.55651C34.4291 5.59583 34.3834 5.63517 34.3508 5.67449C33.763 6.31032 33.1423 7.00516 31.0522 6.84784C28.5964 6.66429 28.4397 5.13699 23.7499 6.30377C28.2958 6.28411 28.2175 7.77865 31.6401 7.33291C31.7577 7.31981 31.8295 7.46402 31.7381 7.54268C31.6858 7.58855 31.6269 7.62789 31.5813 7.66722C31.0654 8.07362 30.3141 8.5718 28.9033 8.28338C25.9641 7.66722 26.3365 6.44798 22.5546 7.1166C25.5003 7.19526 25.2979 8.34238 28.3221 8.62425C28.3221 8.62425 28.3221 8.62425 28.3285 8.62425C28.4918 8.64391 28.5376 8.86022 28.4004 8.952C28.2958 9.02411 28.1782 9.07654 28.0673 9.12243C25.8597 9.98113 24.8341 7.20181 22.1235 7.82454C24.0634 7.99497 23.9066 8.65046 25.6571 9.12898C25.8465 9.18143 25.827 9.43708 25.6179 9.45674C23.5409 9.6665 23.7238 8.26372 22.4501 8.21128C22.1105 8.19817 21.7969 8.38172 21.6271 8.68325C21.1242 9.56161 21.3266 10.3941 21.2939 10.8464C21.4115 11.3184 21.588 11.7773 21.5944 12.2753C21.601 12.6228 21.5683 12.9833 21.4572 13.3176C21.2482 14.0124 21.0392 14.7074 20.8237 15.4088C20.778 15.5529 20.7844 15.7102 20.8367 15.8479C20.915 16.0577 20.9936 16.2609 21.0262 16.4837C21.1046 16.8573 21.0523 17.2441 20.9217 17.6046C20.6474 18.2798 20.3729 18.9549 20.0986 19.6367C20.0464 19.7611 20.0073 19.8924 19.9157 19.9972C19.7787 20.0234 19.7917 19.8465 19.8047 19.7611C20.0726 17.2375 20.3272 14.7138 20.5885 12.1901L20.7976 11.5871C20.3861 11.941 20.2032 12.4326 19.9354 12.8719C19.9027 12.9767 19.746 12.9964 19.7134 12.8785C19.7394 12.4392 19.7981 12.0001 19.8113 11.5609C19.8504 11.1151 19.844 10.6629 19.9943 10.2368C20.164 9.80416 20.4905 9.45674 20.7453 9.08311C21.1633 8.54559 21.4768 7.93597 21.6924 7.29358C21.823 6.90029 22.0974 6.55287 22.4501 6.33655C23.6715 5.56306 24.3834 4.89444 25.5395 4.01608C26.6042 3.2098 27.4272 2.58052 27.8975 2.39043C30.0464 1.5055 34.3638 2.45598 38.0607 0.0437405C38.1521 -0.00870427 38.2697 0.0961676 38.1979 0.246931C37.8517 1.12531 37.4402 1.68904 36.4604 2.17412C33.6388 3.57034 30.399 2.67885 28.9556 3.08527Z" fill="#16191D"/>
<path d="M20.3863 4.5996C20.3863 4.5996 20.1445 4.17352 19.5567 4.12107C19.1125 4.08175 18.9102 4.23252 18.9102 4.23252C18.9102 4.23252 19.4457 4.0752 19.8638 4.44883C20.2817 4.82246 20.0531 5.14367 20.0531 5.14367C20.0531 5.14367 20.5103 4.87491 20.3863 4.5996Z" fill="#16191D"/>
<path d="M20.3598 4.54062C20.3598 4.54062 20.0528 4.21288 19.4258 4.18665C19.4258 4.18665 19.798 4.27841 19.8439 4.48162C19.9222 4.86837 19.5826 5.38621 19.5173 5.63531C19.465 5.85818 20.3598 4.54062 20.3598 4.54062Z" fill="#16191D"/>
<path d="M75.6705 13.5042C74.8204 13.6451 73.9597 13.7104 73.0984 13.6995C71.4829 13.6995 69.7505 12.6312 69.7505 9.64813V7.90226C69.7505 4.73927 71.5666 3.83968 73.2129 3.83968C74.0357 3.8323 74.8577 3.89323 75.6705 4.02182C75.7851 4.03515 75.8909 4.08624 75.8909 4.21729V4.86809C75.8909 4.95916 75.8402 4.99916 75.7233 4.99916H75.6726C74.91 4.93473 74.315 4.90807 73.2151 4.90807C72.0139 4.90807 70.9274 5.55889 70.9274 7.90226V9.64813C70.9274 11.7983 71.8972 12.6446 73.1005 12.6446C73.8875 12.6446 74.423 12.5935 74.7271 12.5667V8.84184C74.7244 8.80896 74.7283 8.77586 74.7388 8.74459C74.7492 8.71332 74.766 8.68452 74.7877 8.65998C74.8097 8.63543 74.8363 8.61565 74.8661 8.60186C74.8959 8.58806 74.928 8.58052 74.9606 8.57974H75.6594C75.7258 8.58317 75.7885 8.61236 75.834 8.66122C75.8796 8.71006 75.9046 8.77479 75.9041 8.84184V13.2176C75.9061 13.2858 75.8834 13.3524 75.8406 13.4051C75.7976 13.4578 75.7371 13.4929 75.6705 13.5042Z" fill="#B8BBBD"/>
<path d="M80.722 7.35586C80.1203 7.3318 79.5179 7.37577 78.9258 7.4869V13.3487C78.929 13.4122 78.9079 13.4745 78.8669 13.5228C78.8258 13.5712 78.7682 13.6019 78.7054 13.6085H78.0332C77.968 13.6051 77.907 13.5758 77.8631 13.5272C77.8194 13.4785 77.7966 13.4144 77.7996 13.3487V7.01822C77.8033 6.95281 77.8267 6.89008 77.8663 6.83819C77.9061 6.7863 77.9604 6.74764 78.0221 6.72725C78.7582 6.40074 79.651 6.36298 80.722 6.36298C80.8917 6.36298 80.9954 6.3763 80.9954 6.55843V7.15595C80.9954 7.29145 80.969 7.35586 80.722 7.35586Z" fill="#B8BBBD"/>
<path d="M85.0107 13.6995C83.1109 13.6995 82.1455 12.4358 82.1455 10.5211V9.53039C82.1455 7.61572 83.1152 6.35406 85.0107 6.35406C86.9061 6.35406 87.876 7.61572 87.876 9.53039V10.5211C87.876 12.4358 86.8995 13.6995 85.0107 13.6995ZM86.7562 9.53039C86.7562 8.19767 86.2252 7.35584 85.0107 7.35584C83.7963 7.35584 83.2783 8.191 83.2783 9.53039V10.5211C83.2783 11.8537 83.7963 12.6978 85.0107 12.6978C86.2252 12.6978 86.7562 11.8626 86.7562 10.5211V9.53039Z" fill="#B8BBBD"/>
<path d="M92.187 13.6995H92.0637C91.182 13.6995 89.4013 13.2042 89.4013 10.6388V6.70501C89.3984 6.67187 89.4025 6.63852 89.4132 6.60707C89.4239 6.57561 89.4411 6.54675 89.4636 6.52231C89.4859 6.49788 89.513 6.4784 89.5433 6.46511C89.5737 6.45183 89.6063 6.44502 89.6391 6.44513H90.3115C90.344 6.44563 90.3763 6.45288 90.4059 6.46643C90.4357 6.47999 90.4623 6.49956 90.4843 6.52393C90.5062 6.54831 90.5228 6.57697 90.5333 6.60811C90.5439 6.63927 90.5478 6.67225 90.5451 6.70501V10.6388C90.5451 12.1937 91.2063 12.6978 92.0703 12.6978H92.187C93.0511 12.6978 93.7122 12.2024 93.7122 10.6388V6.70501C93.7096 6.67243 93.7135 6.63962 93.7238 6.60862C93.7342 6.57763 93.7506 6.54907 93.7724 6.52474C93.794 6.5004 93.8204 6.48077 93.8498 6.46709C93.8793 6.4534 93.9112 6.44593 93.9437 6.44513H94.6159C94.6485 6.44563 94.6807 6.45288 94.7105 6.46643C94.7401 6.47999 94.7669 6.49956 94.7888 6.52393C94.8106 6.54831 94.8274 6.57697 94.8379 6.60811C94.8482 6.63927 94.8523 6.67225 94.8495 6.70501V10.6388C94.8495 13.2042 93.0643 13.6995 92.187 13.6995Z" fill="#B8BBBD"/>
<path d="M99.2556 13.6997C98.7486 13.6929 98.2431 13.6454 97.7436 13.5575V15.9142C97.7436 15.9467 97.7373 15.9787 97.725 16.0087C97.7127 16.0385 97.6947 16.0657 97.672 16.0887C97.6492 16.1115 97.6222 16.1298 97.5926 16.1421C97.5628 16.1544 97.5311 16.1608 97.4989 16.1608H96.8378C96.8062 16.1605 96.775 16.1539 96.7461 16.1414C96.7172 16.1287 96.6911 16.1103 96.6693 16.0873C96.6474 16.0644 96.6304 16.0371 96.6194 16.0074C96.6081 15.9778 96.6029 15.946 96.6042 15.9142V6.94949C96.6042 6.78069 96.6438 6.70294 96.8753 6.65185C97.6542 6.46152 98.452 6.36094 99.2534 6.35199C101.18 6.35199 102.072 7.61363 102.072 9.56829V10.5034C102.075 12.5536 101.142 13.6997 99.2556 13.6997ZM100.935 9.57051C100.935 8.20225 100.536 7.31821 99.2556 7.31821C98.749 7.32117 98.2434 7.36424 97.7436 7.44704V12.6047C98.2436 12.6874 98.749 12.7313 99.2556 12.7358C100.523 12.7358 100.935 11.9028 100.935 10.5145V9.57051Z" fill="#B8BBBD"/>
<path d="M53.174 13.593C52.5921 13.6841 50.9698 13.7996 50.4079 13.7996C47.913 13.7996 46.2202 13.1688 46.2202 10.0103V4.25292C46.2208 4.21957 46.2279 4.18667 46.2413 4.15614C46.2547 4.12562 46.2737 4.09807 46.2978 4.07512C46.3218 4.05216 46.3501 4.03425 46.381 4.02245C46.412 4.01064 46.4451 4.00518 46.4781 4.00636H48.5852C48.6182 4.00488 48.6514 4.01013 48.6824 4.02182C48.7135 4.03352 48.742 4.05139 48.7661 4.07441C48.79 4.09743 48.8093 4.1251 48.8225 4.15576C48.8357 4.18644 48.8427 4.21948 48.843 4.25292V10.0103C48.843 11.1831 49.231 11.5651 50.15 11.5651C50.5649 11.5638 50.9793 11.5371 51.3909 11.4852V4.25292C51.3911 4.21948 51.3981 4.18644 51.4113 4.15576C51.4245 4.1251 51.4438 4.09743 51.4678 4.07441C51.4919 4.05139 51.5203 4.03352 51.5514 4.02182C51.5824 4.01013 51.6156 4.00488 51.6488 4.00636H53.7425C53.8109 4.00332 53.8774 4.0275 53.9283 4.07362C53.979 4.11977 54.0097 4.18417 54.0136 4.25292V12.5891C54.0136 13.3177 53.7932 13.502 53.174 13.593Z" fill="#16191D"/>
<path d="M58.0712 13.6834H55.9508C55.883 13.6818 55.8186 13.6534 55.7711 13.6043C55.7239 13.5553 55.6973 13.4896 55.6973 13.4214V4.2522C55.698 4.21923 55.7049 4.18672 55.718 4.15649C55.731 4.12626 55.7499 4.0989 55.7735 4.07601C55.797 4.05311 55.8247 4.03512 55.8552 4.02304C55.8855 4.01097 55.9182 4.00506 55.9508 4.00565H58.0712C58.1042 4.00415 58.1374 4.0094 58.1684 4.0211C58.1995 4.03279 58.228 4.05069 58.2519 4.0737C58.276 4.0967 58.2953 4.12438 58.3085 4.15506C58.3217 4.18572 58.3287 4.21877 58.329 4.2522V13.4214C58.3292 13.4557 58.3228 13.4896 58.3099 13.5214C58.2971 13.5532 58.2782 13.5821 58.2542 13.6066C58.2302 13.6309 58.2018 13.6502 58.1702 13.6634C58.1388 13.6766 58.1051 13.6834 58.0712 13.6834Z" fill="#16191D"/>
<path d="M65.5673 13.5661C64.9793 13.735 64.3692 13.8138 63.7578 13.7993C61.3796 13.7993 59.7773 12.4977 59.7773 9.51465V8.18193C59.7773 5.18995 61.3796 3.88833 63.7578 3.88833C64.3692 3.8751 64.9789 3.95371 65.5673 4.12156C65.7744 4.1882 65.8517 4.22595 65.8517 4.4081V6.07623C65.8517 6.24502 65.7745 6.32277 65.6313 6.32277H65.5915C64.9909 6.25204 64.3868 6.21349 63.7821 6.20728C63.0835 6.20728 62.4596 6.51825 62.4596 8.17303V9.50576C62.4596 11.1472 63.0811 11.4737 63.7821 11.4737C64.3868 11.4669 64.9909 11.4276 65.5915 11.356H65.6158C65.7702 11.356 65.8362 11.4338 65.8362 11.6026V13.2795C65.8517 13.4484 65.7744 13.5016 65.5673 13.5661Z" fill="#16191D"/>
</svg>
